<svg width="114" height="100" viewBox="0 0 114 100" fill="none" xmlns="http://www.w3.org/2000/svg">
<path d="M66.1048 39.3359C66.1048 35.0195 63.0304 32.6367 57.6307 32.6367H47.6982V46.543H56.0738C62.5378 46.5234 66.1048 43.9453 66.1048 39.3359ZM102.268 36.8359C100.395 30.8008 100.119 23.3984 100.336 17.6758C100.553 11.7188 95.8627 6.25 89.5564 6.25H24.7591C18.433 6.25 13.7624 11.7383 13.9792 17.6758C14.1763 23.3984 13.9201 30.8008 12.0479 36.8359C10.156 42.8906 6.98315 46.7188 1.76074 47.207V52.7734C6.96344 53.2617 10.156 57.0898 12.0479 63.1445C13.9201 69.1797 14.196 76.582 13.9792 82.3047C13.7624 88.2617 18.4527 93.7305 24.7591 93.7305H89.5366C95.8627 93.7305 100.533 88.2422 100.316 82.3047C100.119 76.582 100.376 69.1797 102.248 63.1445C104.14 57.0898 107.313 53.2617 112.515 52.7734V47.207C107.332 46.7188 104.14 42.8906 102.268 36.8359ZM59.5423 73.2617H40.2489V26.7188H59.4437C67.977 26.7188 73.5738 31.2891 73.5738 38.3203C73.5738 43.2617 69.8097 47.6758 65.0012 48.4375V48.6914C71.544 49.3945 75.9387 53.8867 75.9387 60.0781C75.9387 68.3008 69.7703 73.2617 59.5423 73.2617ZM57.5716 52.0312H47.6982V67.3437H58.0051C64.745 67.3437 68.312 64.668 68.312 59.6289C68.312 54.6094 64.6464 52.0312 57.5716 52.0312Z" fill="#49373B"/>
</svg>
