<svg width="100" height="100" viewBox="0 0 100 100" fill="none" xmlns="http://www.w3.org/2000/svg">
<path d="M34 72.85H52.8421C62.6237 72.85 68.5014 67.9267 68.5014 59.8584C68.5014 53.8832 64.3751 49.4695 58.1775 48.8297V48.2875C62.6888 47.5284 66.2132 43.2449 66.2132 38.4408C66.2132 31.392 61.035 27 52.43 27H34V72.85ZM41.1193 46.4168V33.0403H50.7708C56.0466 33.0403 59.1318 35.5183 59.1318 39.7476C59.1318 44.0962 55.8568 46.4168 49.5671 46.4168H41.1193ZM41.1193 66.8151V52.0397H50.9985C57.7004 52.0397 61.2302 54.5501 61.2302 59.3488C61.2302 64.207 57.8305 66.8151 51.4106 66.8151H41.1193Z" fill="#49373B" stroke="#49373B"/>
<path d="M3 26.25C3 20.0837 5.44955 14.17 9.80977 9.80977C14.17 5.44955 20.0837 3 26.25 3L72.75 3C78.9163 3 84.83 5.44955 89.1902 9.80977C93.5505 14.17 96 20.0837 96 26.25V72.75C96 78.9163 93.5505 84.83 89.1902 89.1902C84.83 93.5505 78.9163 96 72.75 96H26.25C20.0837 96 14.17 93.5505 9.80977 89.1902C5.44955 84.83 3 78.9163 3 72.75V26.25ZM26.25 8.8125C21.6253 8.8125 17.19 10.6497 13.9198 13.9198C10.6497 17.19 8.8125 21.6253 8.8125 26.25V72.75C8.8125 77.3747 10.6497 81.81 13.9198 85.0802C17.19 88.3503 21.6253 90.1875 26.25 90.1875H72.75C77.3747 90.1875 81.81 88.3503 85.0802 85.0802C88.3503 81.81 90.1875 77.3747 90.1875 72.75V26.25C90.1875 21.6253 88.3503 17.19 85.0802 13.9198C81.81 10.6497 77.3747 8.8125 72.75 8.8125H26.25Z" fill="#49373B" stroke="#49373B"/>
</svg>
