<svg width="100" height="100" viewBox="0 0 100 100" fill="none" xmlns="http://www.w3.org/2000/svg">
<path d="M50.0357 94.5L16.9536 85.4393L10 6H90.0714L83.1179 85.4393L50.0357 94.5ZM24.75 78.9071L50.0357 85.8607L75.3214 78.9071L80.8 14.4286H19.2714L24.75 78.9071Z" fill="#49373B"/>
<path d="M29 24H71.5L67.675 69.2625L50.0375 75L32.1875 70.5375L30.275 55.2375H39.8375V62.8875L50.0375 64.8L59.3875 62.8875V51.4125H30.275L29.6375 41.85C30.5109 41.0535 31.6433 40.6006 32.825 40.575C47.4875 40.575 59.3875 41.85 59.3875 41.85V34.2H30.275L29 24Z" fill="#49373B"/>
</svg>
