<svg width="106" height="100" viewBox="0 0 106 100" fill="none" xmlns="http://www.w3.org/2000/svg">
<path d="M103.167 77.4501C101.705 78.0006 100.092 77.9994 98.6304 77.4467C97.1692 76.8941 95.9618 75.8282 95.2358 74.4501L80.7958 54.571L78.703 51.7918L61.9484 74.4751C61.2661 75.7954 60.1241 76.823 58.736 77.3659C57.3479 77.9089 55.8086 77.9299 54.4061 77.4251L75.995 48.5918L55.9129 22.546C57.3568 22.0279 58.936 22.0211 60.3845 22.5265C61.833 23.032 63.0623 24.0188 63.8653 25.321L78.8328 45.446L93.8839 25.4043C94.5715 24.1076 95.7137 23.1076 97.0935 22.5944C98.4733 22.0813 99.9944 22.0907 101.368 22.621L93.5742 32.9168L83.0183 46.596C82.7251 46.8563 82.4906 47.1753 82.33 47.5322C82.1693 47.8891 82.0863 48.2757 82.0863 48.6668C82.0863 49.0579 82.1693 49.4445 82.33 49.8014C82.4906 50.1583 82.7251 50.4773 83.0183 50.7376L103.126 77.4543L103.167 77.4501ZM2.72327 48.2335L4.48118 39.5876C9.31127 22.4918 29 15.3793 42.5443 25.9626C50.4759 32.1668 52.4556 40.9501 52.0664 50.8501H7.38593C6.66184 68.5293 19.4779 79.2043 35.8642 73.7501C38.5206 72.7983 40.8983 71.2053 42.7844 69.114C44.6704 67.0226 46.0059 64.4982 46.6712 61.7668C47.5376 58.9918 48.9649 58.5168 51.585 59.3168C51.1484 62.7017 49.9464 65.944 48.0695 68.7998C46.1926 71.6556 43.6895 74.0505 40.7487 75.8043C35.8911 78.4494 30.3177 79.4978 24.8254 78.7996C19.3332 78.1014 14.2033 75.6923 10.1693 71.9168C6.18063 67.4476 3.76996 61.8022 3.30505 55.8418C3.30505 54.8626 2.97021 53.946 2.74419 53.0668C2.72382 51.4572 2.71405 49.8474 2.71489 48.2376L2.72327 48.2335ZM7.44035 47.0418H47.8474C47.5962 34.2251 39.4721 25.1335 28.6358 25.0501C16.5732 24.8835 7.94261 33.7751 7.41105 46.9835L7.44035 47.0418Z" fill="#49373B" stroke="#49373B" stroke-width="3.55"/>
</svg>
