<svg width="107" height="100" viewBox="0 0 107 100" fill="none" xmlns="http://www.w3.org/2000/svg">
<g clip-path="url(#clip0_646_2114)">
<path d="M103.665 77.45C102.203 78.0005 100.59 77.9993 99.1284 77.4466C97.6673 76.894 96.4598 75.8281 95.7339 74.45L81.2938 54.5709L79.2011 51.7917L62.4464 74.475C61.7641 75.7952 60.6222 76.8229 59.234 77.3658C57.8459 77.9087 56.3067 77.9298 54.9041 77.425L76.493 48.5917L56.4109 22.5458C57.8549 22.0278 59.4341 22.021 60.8826 22.5264C62.331 23.0318 63.5603 24.0187 64.3634 25.3208L79.3308 45.4459L94.3819 25.4042C95.0695 24.1075 96.2118 23.1075 97.5915 22.5943C98.9713 22.0811 100.492 22.0906 101.866 22.6208L94.0722 32.9167L83.5163 46.5958C83.2232 46.8562 82.9886 47.1752 82.828 47.5321C82.6674 47.889 82.5844 48.2756 82.5844 48.6667C82.5844 49.0577 82.6674 49.4444 82.828 49.8013C82.9886 50.1581 83.2232 50.4772 83.5163 50.7375L103.624 77.4542L103.665 77.45ZM3.22131 48.2334L4.97923 39.5875C9.80932 22.4917 29.498 15.3792 43.0424 25.9625C50.9739 32.1667 52.9537 40.95 52.5644 50.85H7.88398C7.15989 68.5292 19.976 79.2042 36.3623 73.75C39.0186 72.7981 41.3964 71.2052 43.2824 69.1138C45.1685 67.0225 46.504 64.4981 47.1693 61.7667C48.0357 58.9917 49.4629 58.5167 52.0831 59.3167C51.6465 62.7016 50.4445 65.9439 48.5675 68.7997C46.6906 71.6554 44.1876 74.0503 41.2468 75.8042C36.3891 78.4493 30.8157 79.4977 25.3235 78.7995C19.8312 78.1013 14.7014 75.6922 10.6674 71.9167C6.67867 67.4475 4.26801 61.8021 3.8031 55.8417C3.8031 54.8625 3.46826 53.9459 3.24224 53.0667C3.22186 51.457 3.2121 49.8473 3.21294 48.2375L3.22131 48.2334ZM7.93839 47.0417H48.3454C48.0943 34.225 39.9702 25.1333 29.1339 25.05C17.0712 24.8833 8.44066 33.775 7.90909 46.9834L7.93839 47.0417Z" fill="#49373B" stroke="#49373B" stroke-width="5.55"/>
</g>
<defs>
<clipPath id="clip0_646_2114">
<rect width="105.882" height="100" fill="white" transform="translate(0.498047)"/>
</clipPath>
</defs>
</svg>
