<svg width="75" height="100" viewBox="0 0 75 100" fill="none" xmlns="http://www.w3.org/2000/svg">
<path d="M6 21.2127C6 11.7064 13.7064 4 23.2128 4H52.7477C62.2541 4 69.9605 11.7064 69.9605 21.2127C69.9605 27.2322 66.8706 32.5301 62.1903 35.6065C66.8706 38.6831 69.9605 43.9808 69.9605 50.0004C69.9605 59.5067 62.2541 67.2132 52.7477 67.2132H52.3739C47.9173 67.2132 43.8562 65.5194 40.7994 62.7406V78.6003C40.7994 88.2334 32.8915 96 23.3055 96C13.8229 96 6 88.3171 6 78.7872C6 72.768 9.08964 67.4705 13.7695 64.3939C9.08964 61.3173 6 56.0195 6 50.0004C6 43.9808 9.08991 38.6831 13.7701 35.6065C9.08991 32.5301 6 27.2322 6 21.2127ZM35.1611 38.4258H23.2128C16.8203 38.4258 11.6382 43.608 11.6382 50.0004C11.6382 56.3681 16.7803 61.5349 23.1388 61.5747C23.1634 61.5746 23.188 61.5746 23.2128 61.5746H35.1611V38.4258ZM40.7994 50.0004C40.7994 56.3927 45.9814 61.5749 52.3739 61.5749H52.7477C59.1403 61.5749 64.3223 56.3927 64.3223 50.0004C64.3223 43.608 59.1403 38.4258 52.7477 38.4258H52.3739C45.9814 38.4258 40.7994 43.608 40.7994 50.0004ZM23.2128 67.2132C23.188 67.2132 23.1634 67.213 23.1388 67.213C16.7803 67.2527 11.6382 72.4194 11.6382 78.7872C11.6382 85.1562 16.8895 90.3618 23.3055 90.3618C29.825 90.3618 35.1611 85.0725 35.1611 78.6003V67.2132H23.2128ZM23.2128 9.6382C16.8203 9.6382 11.6382 14.8203 11.6382 21.2127C11.6382 27.6052 16.8203 32.7872 23.2128 32.7872H35.1611V9.6382H23.2128ZM40.7994 32.7872H52.7477C59.1403 32.7872 64.3223 27.6052 64.3223 21.2127C64.3223 14.8203 59.1403 9.6382 52.7477 9.6382H40.7994V32.7872Z" fill="#49373B"/>
</svg>
