<svg width="101" height="100" viewBox="0 0 101 100" fill="none" xmlns="http://www.w3.org/2000/svg">
<path d="M16 18.7095C16 8.3765 24.3765 0 34.7096 0H66.8127C77.1457 0 85.5223 8.3765 85.5223 18.7095C85.5223 25.2523 82.1637 31.0109 77.0764 34.3549C82.1637 37.699 85.5223 43.4574 85.5223 50.0004C85.5223 60.3334 77.1457 68.71 66.8127 68.71H66.4064C61.5623 68.71 57.148 66.8689 53.8254 63.8484V81.0873C53.8254 91.558 45.2299 100 34.8104 100C24.5031 100 16 91.649 16 81.2904C16 74.7479 19.3583 68.9897 24.4452 65.6455C19.3583 62.3014 16 56.543 16 50.0004C16 43.4574 19.3586 37.699 24.4458 34.3549C19.3586 31.0109 16 25.2523 16 18.7095ZM47.6969 37.4193H34.7096C27.7612 37.4193 22.1285 43.0522 22.1285 50.0004C22.1285 56.9219 27.7177 62.5379 34.6291 62.5812C34.6559 62.5811 34.6826 62.5811 34.7096 62.5811H47.6969V37.4193ZM53.8254 50.0004C53.8254 56.9486 59.458 62.5814 66.4064 62.5814H66.8127C73.7611 62.5814 79.3937 56.9486 79.3937 50.0004C79.3937 43.0522 73.7611 37.4193 66.8127 37.4193H66.4064C59.458 37.4193 53.8254 43.0522 53.8254 50.0004ZM34.7096 68.71C34.6826 68.71 34.6559 68.7098 34.6291 68.7098C27.7177 68.7529 22.1285 74.3689 22.1285 81.2904C22.1285 88.2133 27.8364 93.8715 34.8104 93.8715C41.8967 93.8715 47.6969 88.1223 47.6969 81.0873V68.71H34.7096ZM34.7096 6.12848C27.7612 6.12848 22.1285 11.7612 22.1285 18.7095C22.1285 25.6578 27.7612 31.2904 34.7096 31.2904H47.6969V6.12848H34.7096ZM53.8254 31.2904H66.8127C73.7611 31.2904 79.3937 25.6578 79.3937 18.7095C79.3937 11.7612 73.7611 6.12848 66.8127 6.12848H53.8254V31.2904Z" fill="#49373B"/>
</svg>
