<svg width="101" height="100" viewBox="0 0 101 100" fill="none" xmlns="http://www.w3.org/2000/svg">
<path fill-rule="evenodd" clip-rule="evenodd" d="M23.048 8.63768C23.5808 7.42868 24.7772 6.64844 26.0984 6.64844H77.1647C79.0054 6.64844 80.498 8.14081 80.498 9.98174V36.6665C80.498 38.5075 79.0054 39.9999 77.1647 39.9999H58.0661L77.3567 61.083C78.2487 62.0579 78.4807 63.4675 77.948 64.6768C77.4154 65.8861 76.2194 66.6665 74.898 66.6665H53.8314V89.9999C53.8314 91.3479 53.0192 92.5632 51.7736 93.0792C50.528 93.5952 49.0944 93.3105 48.141 92.3572L21.4744 65.6902C20.8492 65.0651 20.498 64.2173 20.498 63.3332V36.6665C20.498 34.8256 21.9904 33.3332 23.8314 33.3332H42.9334L23.6384 12.2311C22.7468 11.2561 22.5153 9.84661 23.048 8.63768ZM51.9668 33.3332L33.663 13.3151H73.8314V33.3332H51.9668ZM49.0299 39.9999H27.1647V59.9999H50.498H67.3294L49.0299 39.9999ZM31.8788 66.6665L47.1647 81.9525V66.6665H31.8788Z" fill="#49373B"/>
</svg>
