<svg width="88" height="100" viewBox="0 0 88 100" fill="none" xmlns="http://www.w3.org/2000/svg">
<g clip-path="url(#clip0_646_2132)">
<path d="M86.2374 46.1034L48.0441 7.90023C46.9868 6.84387 45.5533 6.25049 44.0587 6.25049C42.5642 6.25049 41.1307 6.84387 40.0734 7.90023L32.132 15.8358L42.1945 25.8983C47.4796 24.1131 52.4836 29.1737 50.6691 34.4295L60.3683 44.1287C67.0539 41.8241 72.3175 50.1834 67.2961 55.201C62.1222 60.3748 53.5832 54.6405 56.3586 47.908L47.3058 38.867V62.6659C52.2472 65.1151 51.6535 70.8397 49.0793 73.408C47.8216 74.665 46.1162 75.3711 44.338 75.3711C42.5599 75.3711 40.8545 74.665 39.5968 73.408C36.1652 69.9705 37.4347 64.2459 41.7941 62.4705V38.4471C37.7316 36.785 36.9894 32.4432 38.1535 29.658L28.2336 19.7264L2.03824 45.9256C0.981403 46.9827 0.387695 48.4162 0.387695 49.911C0.387695 51.4057 0.981403 52.8393 2.03824 53.8963L40.2433 92.0994C41.3003 93.1557 42.7334 93.749 44.2277 93.749C45.722 93.749 47.1551 93.1557 48.2121 92.0994L86.2374 54.0741C87.2943 53.017 87.888 51.5835 87.888 50.0887C87.888 48.594 87.2943 47.1604 86.2374 46.1034Z" fill="#49373B"/>
</g>
<defs>
<clipPath id="clip0_646_2132">
<rect width="87.5" height="100" fill="white" transform="translate(0.387695)"/>
</clipPath>
</defs>
</svg>
