<svg width="100" height="100" viewBox="0 0 100 100" fill="none" xmlns="http://www.w3.org/2000/svg">
<path d="M49.5155 0C47.7341 0 45.994 0.649068 44.6544 1.98863L34.7113 12.0423C34.1727 12.3323 33.717 12.7466 33.3855 13.2575L2.00934 44.6337C-0.669782 47.299 -0.669782 51.6768 2.00934 54.3559L44.6544 97.001C47.3336 99.6663 51.6975 99.6663 54.3766 97.001L97.0217 54.3559C99.7009 51.6906 99.7009 47.3129 97.0217 44.6337L54.3766 1.98863C53.0371 0.649068 51.297 0 49.5155 0ZM49.5155 7.18117L91.8292 49.4948L49.5155 91.8085L7.20188 49.4948L36.479 20.2178L42.6658 26.4046C42.5001 26.9984 42.4448 27.6337 42.4448 28.2828C42.4448 30.8928 43.8673 33.13 45.9802 34.3591V64.6305C43.8673 65.8596 42.4448 68.0968 42.4448 70.7069C42.4448 74.6151 45.6073 77.7776 49.5155 77.7776C53.4237 77.7776 56.5862 74.6151 56.5862 70.7069C56.5862 68.0968 55.1638 65.8596 53.0509 64.6305V36.9002L63.8779 47.7271C63.726 48.2934 63.6569 48.8872 63.6569 49.4948C63.6569 53.403 66.8194 56.5655 70.7276 56.5655C74.6358 56.5655 77.7983 53.403 77.7983 49.4948C77.7983 45.5866 74.6358 42.4241 70.7276 42.4241C70.12 42.4241 69.5261 42.4932 68.9599 42.6451L56.3653 30.0504C56.5172 29.4842 56.5862 28.8904 56.5862 28.2828C56.5862 24.3745 53.4237 21.2121 49.5155 21.2121C48.8665 21.2121 48.2312 21.2673 47.6374 21.433L41.4505 15.2462L49.5155 7.18117Z" fill="#49373B"/>
</svg>
