<svg width="89" height="100" viewBox="0 0 89 100" fill="none" xmlns="http://www.w3.org/2000/svg">
<g clip-path="url(#clip0_646_2098)">
<path d="M0.998047 6.25V93.75H88.498V6.25H0.998047ZM48.6152 74.4922C48.6152 83.0078 43.6152 86.8945 36.3301 86.8945C29.748 86.8945 25.9395 83.4961 23.9863 79.375L30.6855 75.332C31.9746 77.6172 33.1465 79.5508 35.9785 79.5508C38.6738 79.5508 40.3926 78.4961 40.3926 74.375V46.4258H48.6152V74.4922ZM68.0684 86.8945C60.4316 86.8945 55.4902 83.2617 53.0879 78.4961L59.7871 74.6289C61.5449 77.5 63.8496 79.6289 67.8926 79.6289C71.291 79.6289 73.4785 77.9297 73.4785 75.5664C73.4785 72.7539 71.252 71.7578 67.4824 70.0977L65.4316 69.2188C59.4941 66.6992 55.5684 63.5156 55.5684 56.8164C55.5684 50.6445 60.2754 45.957 67.5996 45.957C72.834 45.957 76.584 47.7734 79.2793 52.5391L72.873 56.6406C71.4668 54.1211 69.9434 53.125 67.5801 53.125C65.1777 53.125 63.6543 54.6484 63.6543 56.6406C63.6543 59.1016 65.1777 60.0977 68.7129 61.6406L70.7637 62.5195C77.7559 65.5078 81.6816 68.5742 81.6816 75.4492C81.6816 82.832 75.8613 86.8945 68.0684 86.8945Z" fill="#49373B"/>
</g>
<defs>
<clipPath id="clip0_646_2098">
<rect width="87.5" height="100" fill="white" transform="translate(0.998047)"/>
</clipPath>
</defs>
</svg>
