<svg width="100" height="100" viewBox="0 0 100 100" fill="none" xmlns="http://www.w3.org/2000/svg">
<path d="M80.8543 52.7839V51.7443C80.8543 47.1508 77.1303 43.4271 72.5374 43.4271H65.2596C60.092 43.4271 55.9029 47.6163 55.9029 52.7839C55.9029 57.9516 60.092 62.1407 65.2596 62.1407H71.4975C76.6649 62.1407 80.8543 66.3301 80.8543 71.4975C80.8543 76.6649 76.6649 80.8543 71.4975 80.8543H65.2596C60.092 80.8543 55.9029 76.6649 55.9029 71.4975M43.4271 40.3082V71.4975C43.4271 76.6649 39.238 80.8543 34.0704 80.8543C28.9027 80.8543 24.7136 76.6649 24.7136 71.4975M6 6H93.33V93.33H6V6Z" stroke="#49373B" stroke-width="7" stroke-linejoin="round"/>
</svg>
