<svg width="100" height="100" viewBox="0 0 100 100" fill="none" xmlns="http://www.w3.org/2000/svg">
<path d="M30.8 30.8L33.3942 28.9264C32.5815 27.8012 31.1361 27.3282 29.8155 27.7552C28.4948 28.1823 27.6 29.412 27.6 30.8H30.8ZM50 91.6C27.025 91.6 8.4 72.9754 8.4 50H2C2 76.5094 23.4903 98 50 98V91.6ZM91.6 50C91.6 72.9754 72.9754 91.6 50 91.6V98C76.5094 98 98 76.5094 98 50H91.6ZM50 8.4C72.9754 8.4 91.6 27.025 91.6 50H98C98 23.4903 76.5094 2 50 2V8.4ZM50 2C23.4903 2 2 23.4903 2 50H8.4C8.4 27.025 27.025 8.4 50 8.4V2ZM34 78.8V30.8H27.6V78.8H34ZM28.2058 32.6736L69.8061 90.2733L74.9939 86.5267L33.3942 28.9264L28.2058 32.6736ZM66 27.6V66H72.4V27.6H66Z" fill="#49373B"/>
<path d="M33.3942 28.9264L30.8 30.8H27.6M33.3942 28.9264C32.5815 27.8012 31.1361 27.3282 29.8155 27.7552C28.4948 28.1823 27.6 29.412 27.6 30.8M33.3942 28.9264L74.9939 86.5267L69.8061 90.2733L28.2058 32.6736L33.3942 28.9264ZM27.6 30.8H34V78.8H27.6V30.8ZM50 91.6C27.025 91.6 8.4 72.9754 8.4 50M50 91.6V98M50 91.6C72.9754 91.6 91.6 72.9754 91.6 50M8.4 50H2M8.4 50C8.4 27.025 27.025 8.4 50 8.4M2 50C2 76.5094 23.4903 98 50 98M2 50C2 23.4903 23.4903 2 50 2M50 98C76.5094 98 98 76.5094 98 50M91.6 50H98M91.6 50C91.6 27.025 72.9754 8.4 50 8.4M98 50C98 23.4903 76.5094 2 50 2M50 8.4V2M66 27.6V66H72.4V27.6H66Z" stroke="#49373B" stroke-linejoin="round"/>
</svg>
