<svg width="100" height="100" viewBox="0 0 100 100" fill="none" xmlns="http://www.w3.org/2000/svg">
<g clip-path="url(#clip0_674_1893)">
<path d="M74.2208 93.7583C73.85 93.9542 73.8708 94.0333 74.2417 93.8458C74.3502 93.7993 74.4491 93.7328 74.5333 93.65C74.5333 93.5833 74.525 93.5917 74.2208 93.7583ZM74.9625 93.3667C74.7875 93.5042 74.7875 93.5125 75 93.4042C75.1166 93.3458 75.2167 93.2792 75.2167 93.2583C75.2167 93.1792 75.1666 93.2 74.9625 93.3667ZM75.45 93.0708C75.275 93.2083 75.275 93.2167 75.4875 93.1083C75.6042 93.05 75.7042 92.9833 75.7042 92.9625C75.7042 92.8833 75.6541 92.9042 75.45 93.0708ZM75.9375 92.7792C75.7625 92.9167 75.7625 92.925 75.975 92.8167C76.0916 92.7583 76.1916 92.6917 76.1916 92.6708C76.1916 92.5917 76.1417 92.6125 75.9375 92.7792ZM76.6125 92.3417C76.2708 92.5583 76.1625 92.7042 76.4666 92.5375C76.6833 92.4125 77.0333 92.1458 76.975 92.1375C76.8472 92.1924 76.7257 92.2608 76.6125 92.3417ZM46.725 0.0249992C46.5083 0.0458325 45.825 0.112499 45.2083 0.162499C31.0083 1.44167 17.7042 9.10417 9.27915 20.8833C4.62149 27.3485 1.59401 34.8429 0.45415 42.7292C0.0541504 45.475 0.00415039 46.2875 0.00415039 50.0125C0.00415039 53.7375 0.0541504 54.5458 0.45415 57.2958C3.17082 76.0708 16.5333 91.8458 34.6541 97.6917C37.9 98.7375 41.3208 99.45 45.2083 99.8792C46.725 100.046 53.2708 100.046 54.7875 99.8792C61.5 99.1375 67.1917 97.475 72.8 94.6125C73.6583 94.1708 73.825 94.0542 73.7083 93.9583C70.9688 90.3386 68.2548 86.6996 65.5666 83.0417L57.5708 72.2417L47.5541 57.4167C44.2237 52.456 40.8611 47.517 37.4666 42.6C37.4291 42.5917 37.3875 49.1792 37.3708 57.2208C37.3416 71.3042 37.3333 71.8708 37.1541 72.2042C36.9841 72.5936 36.6794 72.9087 36.2958 73.0917C35.9833 73.25 35.7083 73.2792 34.2333 73.2792H32.5416L32.0917 72.9958C31.814 72.8209 31.5882 72.5749 31.4375 72.2833L31.2333 71.8417L31.2541 52.2458L31.2833 32.6417L31.5875 32.2625C31.7918 32.0224 32.0373 31.8206 32.3125 31.6667C32.7125 31.4708 32.8708 31.45 34.5625 31.45C36.5583 31.45 36.8875 31.5292 37.4083 32.0958C41.4631 38.1302 45.484 44.1872 49.4708 50.2667C55.9625 60.1083 64.8333 73.5458 69.1958 80.1458L77.1125 92.1375L77.5125 91.875C81.3218 89.3412 84.7759 86.3102 87.7833 82.8625C94.0832 75.6528 98.1688 66.7784 99.55 57.3042C99.95 54.5583 100 53.7458 100 50.0208C100 46.2958 99.95 45.4875 99.55 42.7375C96.8333 23.9625 83.4708 8.1875 65.35 2.34167C61.9636 1.26353 58.4761 0.533369 54.9416 0.162499C54.0041 0.0666658 47.5416 -0.0416675 46.7333 0.0374992L46.725 0.0249992ZM67.1916 30.2667C67.4247 30.3838 67.632 30.5462 67.8016 30.7443C67.9711 30.9425 68.0995 31.1725 68.1792 31.4208C68.2583 31.675 68.275 37.1083 68.2583 49.3542L68.2292 66.9292L65.1291 62.1792L62.0208 57.4292V44.6542C62.0208 36.3958 62.0583 31.7542 62.1166 31.5292C62.1873 31.2695 62.3093 31.0266 62.4753 30.8148C62.6413 30.603 62.848 30.4265 63.0833 30.2958C63.4833 30.0917 63.6291 30.0708 65.1666 30.0708C66.6125 30.0708 66.8666 30.0917 67.1916 30.2667Z" fill="#49373B"/>
</g>
<defs>
<clipPath id="clip0_674_1893">
<rect width="100" height="100" fill="white"/>
</clipPath>
</defs>
</svg>
