<svg width="89" height="100" viewBox="0 0 89 100" fill="none" xmlns="http://www.w3.org/2000/svg">
<g clip-path="url(#clip0_646_2102)">
<path d="M44.748 99.2188C43.4395 99.2188 42.1113 98.8672 40.959 98.2031L28.9082 91.0742C27.1113 90.0586 27.9902 89.707 28.5762 89.5117C30.9785 88.6719 31.4668 88.4961 34.0254 87.0313C34.2988 86.875 34.6504 86.9336 34.9238 87.1094L44.1816 92.5977C44.5137 92.793 44.9824 92.793 45.2949 92.5977L81.3691 71.7774C81.7012 71.582 81.916 71.1914 81.916 70.8008V29.1602C81.916 28.75 81.7012 28.3789 81.3496 28.1641L45.2949 7.36328C44.9629 7.16797 44.5137 7.16797 44.1816 7.36328L8.14648 28.1836C7.79492 28.3789 7.58008 28.7695 7.58008 29.1797V70.8008C7.58008 71.1914 7.79492 71.582 8.14648 71.7578L18.0293 77.4609C23.4004 80.1367 26.6816 76.9922 26.6816 73.8086V32.7148C26.6816 32.1289 27.1504 31.6797 27.7363 31.6797H32.3066C32.873 31.6797 33.3613 32.1289 33.3613 32.7148V73.8281C33.3613 80.9766 29.4551 85.0781 22.6777 85.0781C20.5879 85.0781 18.9473 85.0781 14.377 82.8125L4.92383 77.3633C2.58008 76.0156 1.13477 73.4961 1.13477 70.7813V29.1602C1.13477 26.4648 2.58008 23.9258 4.92383 22.5781L40.959 1.75781C43.2441 0.46875 46.2715 0.46875 48.5371 1.75781L84.6113 22.5977C86.9551 23.9453 88.4004 26.4648 88.4004 29.1797V70.8008C88.4004 73.4961 86.9551 76.0156 84.6113 77.3828L48.5371 98.2031C47.3848 98.8672 46.0762 99.2188 44.748 99.2188ZM73.8691 58.1836C73.8691 50.3906 68.5957 48.3203 57.5215 46.8555C46.3105 45.3711 45.1777 44.6094 45.1777 41.9922C45.1777 39.8242 46.1348 36.9336 54.4355 36.9336C61.8379 36.9336 64.5723 38.5352 65.7051 43.5352C65.8027 44.0039 66.2324 44.3555 66.7207 44.3555H71.4082C71.7012 44.3555 71.9746 44.2383 72.1699 44.0234C72.3652 43.8086 72.4629 43.5156 72.4434 43.2227C71.7207 34.6094 65.998 30.6055 54.4355 30.6055C44.1426 30.6055 38.0098 34.9414 38.0098 42.2266C38.0098 50.1172 44.123 52.3047 53.9863 53.2813C65.8027 54.4336 66.7207 56.1719 66.7207 58.4961C66.7207 62.5195 63.4785 64.2383 55.8809 64.2383C46.3301 64.2383 44.2402 61.8359 43.5371 57.0898C43.459 56.582 43.0293 56.2109 42.502 56.2109H37.834C37.248 56.2109 36.7988 56.6797 36.7988 57.2461C36.7988 63.3203 40.0996 70.5664 55.9004 70.5664C67.3066 70.5469 73.8691 66.0352 73.8691 58.1836Z" fill="#49373B"/>
</g>
<defs>
<clipPath id="clip0_646_2102">
<rect width="87.5" height="100" fill="white" transform="translate(0.998047)"/>
</clipPath>
</defs>
</svg>
