<svg width="101" height="100" viewBox="0 0 101 100" fill="none" xmlns="http://www.w3.org/2000/svg">
<path d="M71.7527 0C67.8621 0.034375 64.0059 0.5875 60.2621 1.675L60.0027 1.75938C57.6559 1.35 55.2652 1.125 52.8902 1.075C47.9746 0.990625 43.7559 2.17813 40.3559 4.16563C37.0027 3.0125 30.0527 0.990625 22.7277 1.4C17.6371 1.675 12.0684 3.22188 7.93086 7.58438C3.83086 11.9313 1.65274 18.6688 2.10586 27.85C2.23399 30.3719 2.95274 34.4875 4.15586 39.8406C5.34336 45.1813 7.02149 51.4313 9.12149 57.1438C11.2215 62.8406 13.5121 67.9656 17.0965 71.4469C18.884 73.1875 21.359 74.6719 24.2715 74.5438C26.309 74.4594 28.1465 73.5656 29.7434 72.2469C30.5215 73.2719 31.3559 73.7094 32.1027 74.1188C33.0652 74.6406 33.9746 74.9969 34.9371 75.2281C36.6621 75.6656 39.609 76.2375 43.059 75.65C44.2309 75.4531 45.4684 75.0656 46.7059 74.5281C46.7559 75.8938 46.8059 77.2438 46.8527 78.6125C47.0309 82.925 47.1496 86.9125 48.4309 90.4125C48.6434 90.9844 49.2152 93.9125 51.459 96.5156C53.7215 99.1188 58.1121 100.731 63.1434 99.6563C66.6777 98.9063 71.184 97.5406 74.1809 93.2781C77.1434 89.0781 78.4777 83.0406 78.7402 73.2406C78.8027 72.7031 78.8871 72.2656 78.9652 71.8406L79.6652 71.9063H79.7496C83.5246 72.0688 87.6277 71.5313 91.0621 69.9344C94.0871 68.5344 96.384 67.1188 98.059 64.5969C98.4684 63.975 98.9371 63.2125 99.0559 61.9094C99.184 60.625 98.434 58.5875 97.1965 57.6469C94.7246 55.7594 93.1621 56.475 91.484 56.8344C89.8434 57.1938 88.1621 57.3844 86.4871 57.4344C91.3027 49.3313 94.7527 40.7063 96.7246 33.0844C97.8965 28.575 98.5496 24.425 98.5965 20.7969C98.6621 17.1688 98.3559 13.9625 96.1871 11.1813C89.384 2.50625 79.8277 0.09375 72.4402 0.015625C72.2121 0.015625 71.9871 0.015625 71.7559 0.015625L71.7527 0ZM71.5559 2.67188C78.5402 2.60625 87.4715 4.55938 93.884 12.7594C95.334 14.6 95.759 17.2844 95.709 20.6063C95.659 23.9281 95.0434 27.8813 93.9184 32.2281C91.7559 40.6625 87.634 50.4563 81.859 59.2656C82.0559 59.4125 82.2809 59.5406 82.509 59.625C83.7121 60.1281 86.4621 60.55 91.9621 59.4281C93.3465 59.1313 94.359 58.9406 95.4152 59.7375C95.9371 60.175 96.2121 60.8281 96.1777 61.5125C96.1152 62.0156 95.9371 62.5031 95.6246 62.9125C94.5652 64.5031 92.4715 66.0219 89.784 67.275C87.409 68.3781 83.9871 68.95 80.9809 68.9844C79.4527 69 78.0527 68.8844 76.859 68.5094L76.7965 68.4969C76.3371 72.9063 75.284 81.6313 74.5965 85.6C74.0465 88.8031 73.084 91.3625 71.2465 93.2656C69.4059 95.1875 66.8184 96.325 63.3184 97.075C58.9902 98.0031 55.8465 97.0094 53.8152 95.3C51.784 93.5906 50.8527 91.3125 50.2996 89.9281C49.9121 88.9688 49.7152 87.7313 49.5215 86.0688C49.3246 84.4094 49.1965 82.3906 49.0965 80.0969C48.9684 76.5969 48.9184 73.0969 48.9684 69.5813C47.1652 71.2438 44.9184 72.3313 42.5059 72.7563C39.6277 73.2438 37.0715 72.7563 35.5434 72.3813C34.7934 72.1844 34.059 71.9094 33.3777 71.5344C32.6621 71.1594 31.9934 70.7375 31.5402 69.8875C31.2777 69.4 31.1996 68.8344 31.3121 68.2969C31.4402 67.7438 31.7652 67.2719 32.209 66.9125C33.0371 66.2406 34.1309 65.8719 35.7715 65.5281C38.7684 64.9063 39.8246 64.4875 40.459 63.9781C40.9965 63.5563 41.6184 62.6781 42.6871 61.3906C42.6871 61.3438 42.6871 61.2781 42.6715 61.2281C40.7371 61.1656 38.8465 60.6625 37.1371 59.7313C36.5215 60.3813 33.3121 63.7688 29.4246 68.4563C27.7965 70.4063 25.9902 71.5313 24.0715 71.6156C22.1684 71.6938 20.4371 70.7375 18.9746 69.3188C16.0465 66.4688 13.6996 61.5688 11.6652 56.0344C9.63086 50.5 7.98711 44.3344 6.79961 39.0938C5.62773 33.8344 4.92774 29.6031 4.82774 27.5688C4.39024 18.8937 6.42461 13.0531 9.90586 9.35625C13.3871 5.65938 18.159 4.27813 22.8152 4.00313C31.1652 3.53125 39.1059 6.44375 40.7027 7.0625C43.7934 4.9625 47.7809 3.6625 52.7621 3.74063C55.1246 3.775 57.4652 4.08125 59.7621 4.65313L59.8465 4.60313C60.8559 4.2625 61.8809 3.95313 62.9215 3.72813C65.7559 3.05625 68.6496 2.71563 71.5465 2.66875L71.5559 2.67188ZM72.1902 5.45313H71.5746C69.1996 5.48125 66.8027 5.7625 64.4777 6.26563C69.6684 8.5625 73.5902 12.0906 76.3559 15.6406C78.2777 18.0813 79.8559 20.7656 81.059 23.6313C81.534 24.7406 81.8434 25.6656 82.0059 26.3813C82.1027 26.7406 82.1527 27.0469 82.184 27.3563C82.184 27.5188 82.1996 27.6844 82.1184 27.9594C82.1184 27.975 82.1027 28.0094 82.1027 28.025C82.2371 31.6719 81.3246 34.1406 81.2059 37.625C81.1277 40.15 81.7777 43.1125 81.9402 46.35C82.0871 49.3906 81.7152 52.7281 79.7434 56.0156C79.9059 56.2125 80.0527 56.4063 80.2152 56.6188C85.4402 48.3813 89.2152 39.2844 91.2184 31.5188C92.2934 27.3344 92.859 23.5438 92.909 20.5531C92.959 17.5563 92.4059 15.375 91.6871 14.4656C86.0871 7.31875 78.5215 5.49375 72.1871 5.45L72.1902 5.45313ZM52.2184 6.525C47.3059 6.54063 43.7715 8.025 41.0902 10.2531C38.3184 12.5656 36.4652 15.7063 35.2621 18.9438C33.8121 22.7688 33.309 26.4781 33.1121 29.0031L33.1777 28.9688C34.6621 28.1406 36.6121 27.2938 38.7121 26.8219C40.7965 26.3313 43.059 26.1844 45.0902 26.9844C47.1434 27.7625 48.8184 29.6344 49.4371 32.45C52.3715 46.025 48.5277 51.0719 47.1121 54.8781C46.5746 56.2625 46.1027 57.6625 45.7277 59.0938C45.9059 59.0594 46.0871 59.0094 46.2652 58.9938C47.2746 58.9156 48.0527 59.2406 48.5121 59.4344C49.9465 60.0344 50.9215 61.2719 51.459 62.6875C51.5871 63.0625 51.684 63.45 51.7496 63.875C51.7996 64.0375 51.834 64.2156 51.834 64.3969C51.6715 69.5875 51.684 74.7813 51.8809 79.9719C51.9809 82.2188 52.1277 84.1875 52.3059 85.75C52.484 87.2969 52.7277 88.4844 52.8934 88.8906C53.4277 90.225 54.209 91.9656 55.6277 93.1531C57.0277 94.3438 59.0434 95.125 62.7402 94.3438C65.9434 93.6438 67.9152 92.6969 69.2309 91.3313C70.5527 89.9469 71.3309 88.0438 71.834 85.1313C72.5996 80.7531 74.1121 68.0563 74.2934 65.6813C74.2152 63.8719 74.4715 62.4906 75.059 61.4313C75.6434 60.3563 76.5559 59.6906 77.3559 59.3313C77.7434 59.1531 78.1184 59.0406 78.4277 58.9406C78.1027 58.4875 77.7621 58.0313 77.4184 57.5906C76.2809 56.2063 75.334 54.6625 74.634 53.0188C74.309 52.3313 73.9496 51.6469 73.559 50.9969C73.009 50.0063 72.309 48.75 71.5746 47.3344C70.109 44.5344 68.5152 41.1188 67.684 37.7969C66.8559 34.475 66.7434 31.0438 68.859 28.6344C70.7309 26.4844 74.034 25.5938 78.9621 26.0969C78.8152 25.6563 78.7371 25.2813 78.4902 24.7125C77.3684 22.075 75.9027 19.6 74.1434 17.3531C69.959 12 63.1715 6.69063 52.709 6.5125L52.2184 6.525ZM24.5527 6.7375C24.0309 6.7375 23.4934 6.75313 22.9746 6.7875C18.759 7.03438 14.7871 8.25 11.9371 11.2625C9.09024 14.2906 7.22149 19.2219 7.62461 27.4094C7.70899 28.9719 8.37461 33.3 9.52774 38.4594C10.6871 43.6219 12.3277 49.6938 14.2996 55.0625C16.2652 60.4156 18.6465 65.0875 20.9246 67.3C22.0621 68.3906 23.0527 68.8469 23.9496 68.8156C24.8465 68.7656 25.9371 68.2438 27.2715 66.65C29.6965 63.7219 32.2059 60.8875 34.809 58.1219C31.0621 54.85 29.2246 49.9063 29.959 44.9875C30.3809 41.9125 30.4465 39.0281 30.3809 36.75C30.334 34.5375 30.184 33.075 30.184 32.1469C30.184 32.1125 30.184 32.0969 30.184 32.0625V32.0469L30.1684 32.0188C30.1684 27.2156 31.0184 22.4656 32.6434 17.9563C33.8152 14.8438 35.5434 11.7063 38.1434 9.14688C35.5902 8.3 31.0465 7.03438 26.134 6.7875C25.6121 6.75313 25.0715 6.7375 24.5527 6.7375ZM76.209 28.7406C73.3809 28.7906 71.7996 29.525 70.9559 30.4656C69.7809 31.8188 69.6684 34.1938 70.4027 37.125C71.1309 40.0531 72.6496 43.325 74.0652 46.0469C74.7652 47.4125 75.4496 48.6344 75.9996 49.625C76.5715 50.6344 76.9777 51.3344 77.2215 51.9531C77.4496 52.5063 77.7121 52.9938 77.9715 53.45C79.0621 51.1375 79.259 48.875 79.1434 46.5C78.9965 43.5719 78.3152 40.575 78.4277 37.55C78.5434 34 79.2434 31.6875 79.2934 28.9531C78.2809 28.825 77.2402 28.7406 76.2152 28.7406H76.209ZM41.9027 29.2344C41.0402 29.2344 40.1777 29.3469 39.3309 29.5438C37.6527 29.9531 36.0434 30.5688 34.5277 31.4156C34.0246 31.6906 33.5371 32.0031 33.0809 32.3625L32.9809 32.4406C33.0152 33.0625 33.1277 34.525 33.1777 36.7063C33.2277 39.0813 33.1777 42.1063 32.7246 45.3813C31.7152 52.5094 36.8902 58.4031 42.9621 58.4188C43.3215 56.9531 43.9027 55.4688 44.4902 53.9094C46.1809 49.35 49.5027 46.0313 46.7027 33.0438C46.2496 30.9281 45.3371 30.0656 44.0809 29.5781C43.3809 29.3313 42.6527 29.2188 41.9027 29.2375V29.2344ZM74.8934 30.0781H75.1059C75.3652 30.0938 75.6277 30.1125 75.8527 30.175C76.0652 30.225 76.2621 30.2906 76.4246 30.4031C76.5871 30.5 76.6996 30.6625 76.734 30.8563V30.8906C76.734 31.0875 76.684 31.2813 76.5871 31.4625C76.459 31.6875 76.3121 31.9 76.134 32.0781C75.709 32.55 75.1371 32.8625 74.5215 32.9562C73.9184 33.0406 73.3184 32.8781 72.8121 32.5344C72.6152 32.3844 72.4215 32.2219 72.2746 32.0438C72.1277 31.8969 72.0465 31.7031 72.0121 31.5063C71.9996 31.3156 72.0465 31.1188 72.1746 30.9719C72.3246 30.8219 72.4871 30.6938 72.6652 30.5969C73.0684 30.3688 73.6059 30.2063 74.2277 30.1219C74.4527 30.0938 74.6809 30.075 74.8934 30.0594V30.0781ZM42.3059 30.7781C42.5184 30.7781 42.7652 30.7938 42.9934 30.825C43.6434 30.925 44.1965 31.0875 44.634 31.3469C44.8465 31.4469 45.0434 31.6094 45.1871 31.7875C45.3496 31.9844 45.4277 32.225 45.4152 32.4875C45.3652 32.7281 45.2652 32.9594 45.1027 33.1375C44.9246 33.35 44.7309 33.5281 44.5027 33.675C43.9652 34.0656 43.2996 34.2281 42.6309 34.1469C41.959 34.0344 41.3434 33.7094 40.8902 33.2063C40.6934 32.9938 40.5309 32.7656 40.3996 32.5219C40.2527 32.2938 40.1902 32.0344 40.2215 31.7719C40.2871 31.3344 40.6621 31.0875 41.0215 30.9594C41.4309 30.825 41.8684 30.7812 42.3059 30.7969V30.7781ZM80.0527 61.375H80.0371C79.4371 61.6031 78.934 61.6875 78.509 61.8844C78.0715 62.0469 77.7246 62.3719 77.5184 62.775C77.2402 63.25 77.0309 64.0969 77.0934 65.5406C77.2715 65.675 77.484 65.7688 77.7152 65.8375C78.4152 66.05 79.6184 66.1969 80.9527 66.1781C83.6059 66.1438 86.8777 65.5281 88.6184 64.7125C90.034 64.0625 91.3684 63.1844 92.5402 62.1594C86.7309 63.3469 83.4621 63.0375 81.4402 62.2094C80.9527 61.9969 80.4777 61.7188 80.0527 61.375ZM46.5902 61.7656H46.5059C46.2809 61.7813 45.9684 61.8656 45.334 62.55C43.884 64.175 43.3809 65.2 42.1934 66.1469C40.9902 67.1063 39.4434 67.6125 36.334 68.2469C35.359 68.4438 34.7871 68.6688 34.4121 68.8469C34.5246 68.9469 34.5246 68.9813 34.7027 69.0594C35.1621 69.3219 35.7434 69.5344 36.2184 69.6625C37.5527 69.9875 39.7309 70.3781 42.0277 69.9875C44.3059 69.5969 46.6809 68.5031 48.7184 65.6594C49.0777 65.1719 49.1059 64.4375 48.8152 63.6563C48.5246 62.8938 47.8871 62.2094 47.4496 62.0313C47.1715 61.8969 46.8777 61.8188 46.5871 61.7688L46.5902 61.7656Z" fill="#49373B"/>
</svg>
