<svg width="101" height="100" viewBox="0 0 101 100" fill="none" xmlns="http://www.w3.org/2000/svg">
<g clip-path="url(#clip0_925_2089)">
<path d="M91.6284 75.9738L57.3343 3.14512C56.4662 1.31915 54.6668 0.116095 52.6477 0.0116079C50.6239 -0.123989 48.6927 0.877183 47.6371 2.60916L10.4412 62.8539C9.28651 64.711 9.31081 67.0686 10.5036 68.9016L28.6889 97.0633C30.1019 99.2344 32.7747 100.217 35.2576 99.4789L88.0313 83.8687C89.639 83.3986 90.9639 82.2546 91.6633 80.7327C92.3533 79.218 92.3414 77.4764 91.6309 75.9713L91.6284 75.9738ZM83.9505 79.0973L39.1689 92.3394C37.8028 92.7457 36.4915 91.5616 36.7757 90.1831L52.7749 13.5752C53.074 12.1418 55.0533 11.915 55.679 13.2412L85.2966 76.1358C85.5616 76.703 85.5648 77.3579 85.3053 77.9276C85.0459 78.4974 84.5498 78.9249 83.948 79.0973H83.9505Z" fill="#49373B"/>
</g>
<defs>
<clipPath id="clip0_925_2089">
<rect width="100" height="100" fill="white" transform="translate(0.882324)"/>
</clipPath>
</defs>
</svg>
