<svg width="101" height="100" viewBox="0 0 101 100" fill="none" xmlns="http://www.w3.org/2000/svg">
<g clip-path="url(#clip0_646_2107)">
<path d="M97.1058 50.5591C97.1058 61.6048 76.2125 70.5593 50.4391 70.5593C24.6659 70.5593 3.77246 61.6048 3.77246 50.5591C3.77246 39.5133 24.6659 30.5591 50.4391 30.5591C76.2125 30.5591 97.1058 39.5133 97.1058 50.5591Z" stroke="#49373B" stroke-width="6"/>
<path d="M28.2124 91.5927C37.9247 96.854 55.7494 82.7473 68.0251 60.0851C80.3004 37.423 82.3784 14.7869 72.6664 9.52587C62.9539 4.2649 45.1292 18.3713 32.8536 41.0335C20.578 63.6956 18.5 86.332 28.2124 91.5927Z" stroke="#49373B" stroke-width="6"/>
<path d="M72.6663 91.5927C62.9539 96.854 45.1292 82.7473 32.8536 60.0851C20.578 37.423 18.5 14.7869 28.2124 9.52587C37.9247 4.2649 55.7494 18.3713 68.025 41.0335C80.301 63.6956 82.3783 86.332 72.6663 91.5927Z" stroke="#49373B" stroke-width="6"/>
<path d="M43.7725 50.5592C43.7725 54.2411 46.7573 57.2259 50.4391 57.2259C54.121 57.2259 57.1058 54.2411 57.1058 50.5592C57.1058 46.8773 54.121 43.8926 50.4391 43.8926C46.7573 43.8926 43.7725 46.8773 43.7725 50.5592Z" fill="#49373B" stroke="#49373B" stroke-width="6"/>
</g>
<defs>
<clipPath id="clip0_646_2107">
<rect width="100" height="100" fill="white" transform="translate(0.439453)"/>
</clipPath>
</defs>
</svg>
