<svg width="101" height="100" viewBox="0 0 101 100" fill="none" xmlns="http://www.w3.org/2000/svg">
<g clip-path="url(#clip0_646_2119)">
<path d="M69.6704 69.0127C73.3609 68.6272 76.1604 65.4156 76.0329 61.5618C75.9059 57.7081 72.7242 54.6247 68.9067 54.6247H68.6521C64.7075 54.7535 61.6534 58.0935 61.7804 62.0756C61.9079 64.0027 62.6713 65.6727 63.8167 66.8289C59.49 75.436 52.8729 81.7306 42.9471 86.9977C36.2024 90.5943 29.2034 91.8789 22.2045 90.9797C16.478 90.2089 12.0241 87.6397 9.22457 83.4006C5.1524 77.106 4.77065 70.2972 8.20653 63.4889C10.6244 58.6072 14.442 55.0102 16.8598 53.2118C16.3508 51.5418 15.5873 48.7156 15.2055 46.6602C-3.24636 60.1489 -1.33755 78.3906 4.26163 86.9977C8.46103 93.4206 16.9871 97.4031 26.4039 97.4031C28.9489 97.4031 31.494 97.146 34.0391 96.5039C50.3275 93.2922 62.6713 83.5289 69.6704 69.0127ZM92.0671 53.0831C82.3959 41.6501 68.1434 35.3554 51.8546 35.3554H49.8188C48.6734 33.043 46.2554 31.5015 43.5834 31.5015H43.3288C39.3838 31.63 36.3297 34.97 36.4569 38.9524C36.5842 42.8064 39.7656 45.8893 43.5834 45.8893H43.8375C46.6371 45.761 49.055 43.9622 50.0729 41.5216H52.3638C62.035 41.5216 71.1975 44.3477 79.4688 49.8718C85.8317 54.111 90.4125 59.6347 92.9579 66.3147C95.1213 71.7106 94.9938 76.9772 92.7034 81.4735C89.14 88.2822 83.1592 92.0077 75.2696 92.0077C70.1792 92.0077 65.3438 90.466 62.7988 89.3097C61.3988 90.5943 58.8538 92.6497 57.0721 93.9343C62.5442 96.5039 68.1434 97.9168 73.4879 97.9168C85.7042 97.9168 94.7392 91.1085 98.175 84.2997C101.865 76.8489 101.611 64.0027 92.0671 53.0831ZM27.4219 71.1964C27.5492 75.0506 30.7305 78.1335 34.5481 78.1335H34.8027C38.7475 78.0052 41.8016 74.6652 41.6744 70.6827C41.5471 66.8289 38.3658 63.7456 34.5481 63.7456H34.2936C34.0391 63.7456 33.6574 63.7456 33.4029 63.8743C28.1854 55.1385 26.0221 45.6322 26.7856 35.3554C27.2947 27.6476 29.8397 20.9675 34.2936 15.4436C37.984 10.6905 45.11 8.37816 49.9459 8.2497C63.435 7.99279 69.1613 24.9499 69.5429 31.7584C71.1975 32.1438 73.9971 33.043 75.9059 33.6854C74.3788 12.8744 61.6534 2.0835 49.4367 2.0835C37.984 2.0835 27.4219 10.4336 23.2225 22.766C17.3688 39.2093 21.1864 55.0102 28.3127 67.471C27.6764 68.3702 27.2947 69.7835 27.4219 71.1964Z" fill="#49373B"/>
</g>
<defs>
<clipPath id="clip0_646_2119">
<rect width="100" height="100" fill="white" transform="translate(0.380859)"/>
</clipPath>
</defs>
</svg>
