<svg width="126" height="95" viewBox="0 0 126 95" fill="none" xmlns="http://www.w3.org/2000/svg">
<g clip-path="url(#clip0_646_2084)">
<path d="M59.424 71.5031C59.3059 71.714 59.365 71.6203 59.424 71.5031V71.5031ZM108.472 54.5109C104.512 54.5096 100.605 55.4118 97.0528 57.1476C95.8912 54.8234 94.6903 52.7921 94.4934 51.2687C94.2571 49.4914 94.0012 48.4367 94.2768 46.3273C94.5524 44.2179 95.7928 41.2296 95.7731 41.0148C95.7534 40.7999 95.4975 39.7257 92.9578 39.7062C90.4181 39.6867 88.2328 40.1945 87.9788 40.8585C87.5303 42.0721 87.1813 43.3197 86.9354 44.589C86.4825 46.8742 81.8579 55.0382 79.2395 59.296C78.3733 57.6359 77.6448 56.171 77.4873 54.9992C77.2511 53.2218 76.9951 52.1671 77.2708 50.0578C77.5464 47.9484 78.7867 44.9601 78.767 44.7453C78.7473 44.5304 78.4914 43.4562 75.9537 43.4367C73.4159 43.4171 71.2287 43.9249 70.9727 44.589C70.7168 45.2531 70.4412 46.8156 69.9293 48.3195C69.4174 49.8234 63.2572 63.4171 61.6448 66.9523C60.8179 68.7492 60.1092 70.1945 59.5973 71.171C59.5185 71.3273 59.4595 71.4249 59.4201 71.5031C59.4792 71.4054 59.5185 71.3078 59.5185 71.3468C59.0854 72.1867 58.8295 72.6554 58.8295 72.6554V72.6749C58.4948 73.2999 58.1207 73.8663 57.9435 73.8663C57.8254 73.8663 57.5695 72.2257 58.0026 69.9796C58.9279 65.2531 61.1132 57.9093 61.0935 57.6554C61.0739 57.5187 61.507 56.2492 59.6564 55.5656C57.8648 54.921 57.2151 55.9953 57.0576 55.9953C56.9001 55.9953 56.782 56.3859 56.782 56.3859C56.782 56.3859 58.7704 48.1046 52.9646 48.1046C49.3421 48.1046 44.3021 52.0499 41.8254 55.6242C40.2701 56.464 36.9035 58.2804 33.3598 60.214C32.0013 60.9562 30.6035 61.7179 29.2845 62.4406C29.186 62.3429 29.1073 62.2453 29.0088 62.1476C21.9627 54.6867 8.95317 49.4132 9.50442 39.3937C9.7013 35.7414 10.981 26.1515 34.5213 14.5109C53.8151 4.97964 69.2402 7.59683 71.8961 13.4171C75.7154 21.7179 63.649 37.1671 43.613 39.3937C35.9762 40.2335 31.962 37.3039 30.9579 36.2101C29.9145 35.0578 29.757 34.9992 29.3632 35.214C28.7135 35.5656 29.127 36.5812 29.3632 37.1867C29.9538 38.7296 32.4148 41.464 36.6062 42.8312C40.2878 44.0226 49.2417 44.6867 60.0678 40.5265C72.2308 35.8781 81.6985 22.9289 78.9225 12.089C76.0954 1.07339 57.6837 -2.53989 40.274 3.59292C29.9007 7.24526 18.6827 12.9875 10.6128 20.4679C1.02699 29.3742 -0.50667 37.1281 0.12333 40.3703C2.36574 51.8742 18.348 59.3742 24.7445 64.921C24.4295 65.0968 24.1342 65.2531 23.8586 65.4093C20.6515 66.9914 8.46689 73.3195 5.4173 79.9992C1.97199 87.5773 5.98824 93.007 8.62439 93.7492C16.8518 96.0148 25.2761 91.9328 29.8022 85.2335C34.3284 78.5343 33.7791 69.7843 31.6922 65.7999C31.6725 65.7414 31.6332 65.7023 31.6135 65.6437C32.4404 65.1554 33.2869 64.6671 34.1335 64.1789C35.7656 63.2218 37.3603 62.3429 38.7581 61.5812C37.9706 63.6906 37.3996 66.2296 37.1043 69.9015C36.75 74.1984 38.5415 79.7648 40.8646 81.9523C41.8884 82.9093 43.1267 82.9289 43.8945 82.9289C46.6114 82.9289 47.832 80.7023 49.1885 78.046C50.862 74.8039 52.3385 71.0343 52.3385 71.0343C52.3385 71.0343 50.4879 81.2296 55.5476 81.2296C57.3962 81.2296 59.2469 78.8664 60.0757 77.6554V77.6749C60.0757 77.6749 60.1151 77.5968 60.2135 77.4406C60.4104 77.1476 60.5088 76.9718 60.5088 76.9718V76.9132C61.257 75.6437 62.891 72.7335 65.35 67.9289C68.5394 61.7179 71.589 53.964 71.589 53.964C71.8836 55.6685 72.2914 57.3519 72.8096 59.0031C73.3608 60.8585 74.5224 62.8898 75.4477 64.8624C74.6996 65.8781 74.2468 66.464 74.2468 66.464C74.2482 66.479 74.2552 66.4929 74.2664 66.5031C73.6758 67.2843 73.0064 68.1242 72.3174 68.9445C69.7994 71.9132 66.8049 75.3117 66.4111 76.2882C65.9386 77.4406 66.0568 78.2999 66.9624 78.964C67.6318 79.4718 68.813 79.5499 70.0514 79.4523C72.3154 79.296 73.9101 78.7492 74.6779 78.3976C76.0934 77.8941 77.4313 77.1973 78.6528 76.3273C81.1138 74.5304 82.61 71.9523 82.4722 68.5539C82.3934 66.6789 81.7831 64.8039 81.035 63.046C81.2516 62.7335 81.4878 62.4015 81.7044 62.0695C85.6005 56.4249 88.6127 50.2296 88.6127 50.2296C88.9074 51.9341 89.3152 53.6175 89.8334 55.2687C90.3059 56.8507 91.2292 58.589 92.0758 60.2882C88.4159 63.2374 86.1518 66.6554 85.3643 68.9015C83.9074 73.0617 85.0493 74.9367 87.1952 75.3664C88.1599 75.5617 89.538 75.1124 90.5618 74.6828C92.0822 74.1804 93.5158 73.4492 94.8123 72.5148C97.2733 70.7179 99.6535 68.1984 99.496 64.7804C99.4369 63.2374 99.0038 61.6945 98.4329 60.2101C101.524 58.921 105.538 58.2179 110.657 58.8039C121.619 60.0734 123.765 66.8703 123.351 69.7023C122.938 72.5343 120.634 74.1164 119.867 74.5851C119.099 75.0539 118.863 75.2296 118.922 75.5812C119.02 76.089 119.374 76.0695 120.024 75.9523C120.93 75.796 125.771 73.6476 125.987 68.3937C126.302 61.7531 119.867 54.4484 108.466 54.507L108.472 54.5109ZM23.9767 82.7726C20.3562 86.6984 15.2768 88.1828 13.0935 86.9328C10.7506 85.5812 11.676 79.8039 16.143 75.6203C18.8599 73.0812 22.3623 70.7374 24.6855 69.2921C25.217 68.9796 25.9848 68.5109 26.9298 67.9445C27.0873 67.8468 27.1661 67.8078 27.1661 67.8078C27.3433 67.6906 27.5401 67.5929 27.737 67.4757C29.3691 73.4132 27.7961 78.6476 23.9767 82.7687V82.7726ZM50.4288 64.921C49.1688 67.9874 46.513 75.7999 44.8986 75.3898C43.5205 75.0382 42.6739 69.0812 44.623 63.2218C45.6074 60.2726 47.6942 56.757 48.9345 55.3898C50.921 53.1828 53.1063 52.4796 53.6182 53.3585C54.3073 54.5109 51.2163 63.007 50.4288 64.921ZM72.282 75.2726C71.7504 75.546 71.2582 75.7218 71.0219 75.5851C70.8448 75.4874 71.2385 75.1164 71.2385 75.1164C71.2385 75.1164 73.9751 72.2062 75.0579 70.8781C75.6879 70.0968 76.4163 69.1789 77.2019 68.1632C77.2019 68.2609 77.2215 68.3585 77.2215 68.4757C77.1959 71.9718 73.8117 74.3351 72.276 75.2726H72.282ZM89.1305 71.464C88.7368 71.1906 88.7958 70.2726 90.1149 67.421C90.6268 66.3078 91.806 64.4328 93.8555 62.6359C94.0875 63.3161 94.2136 64.0274 94.2296 64.7453C94.2099 69.1398 91.0402 70.7804 89.1325 71.464H89.1305Z" fill="#49373B"/>
</g>
<defs>
<clipPath id="clip0_646_2084">
<rect width="125.999" height="93.7576" fill="white" transform="translate(0 0.621094)"/>
</clipPath>
</defs>
</svg>
