<svg width="100" height="100" viewBox="0 0 100 100" fill="none" xmlns="http://www.w3.org/2000/svg">
<path d="M50.1099 0L6.64453 24.9675V75.0325L50.1099 100L93.3554 75.0325V24.9675L50.1099 0ZM49.9958 14.5183L80.9529 32.1292V67.8713L49.9958 85.4821L19.3808 68.0583L19.047 32.1292L49.9958 14.5183ZM50.1995 16.9758C46.1308 19.3204 42.0666 21.6733 38.0008 24.0233V25.0812L48.8649 31.4287V33.4387C49.4295 33.1133 49.9549 32.8092 50.5412 32.4704L51.6074 33.0971V31.6975C55.2924 29.5858 59.1379 27.3592 62.3091 25.5287C62.3237 25.0154 62.3204 24.4729 62.3254 23.9746C58.2824 21.6429 54.2408 19.3092 50.1995 16.9758ZM34.7291 25.5779C30.6854 27.8821 26.6824 30.2562 22.6766 32.6254V46.8017C26.6974 49.1154 30.7129 51.4379 34.7291 53.7596L36.4054 52.7912V40.6412C39.9724 38.5808 43.7062 36.4221 46.7812 34.6433V32.6254L34.7291 25.5779ZM65.7429 25.9442L53.6904 32.9021V34.31L64.6766 40.7308V53.5075C65.0324 53.7133 65.387 53.9204 65.7429 54.1258L77.7954 47.1679V32.9917L65.7429 25.9442ZM50.5412 34.8796C46.5262 37.2063 42.5074 39.5258 38.4887 41.8458V56.1117C42.5095 58.4254 46.5249 60.7479 50.5412 63.0696L62.5937 56.1033V41.9271L50.5412 34.8796ZM24.7191 50.3908C24.0412 50.7917 23.3545 51.1779 22.6766 51.5792V65.7554C26.6945 68.0767 30.7116 70.3992 34.7291 72.7217L36.4054 71.7533V59.595C37.0824 59.2037 37.6912 58.8504 38.3749 58.4558C37.6962 58.0621 37.1054 57.7212 36.4054 57.3167V55.2L34.7291 56.1687C31.2912 54.1808 27.6866 52.1021 24.7191 50.3908ZM75.7529 50.7487L65.7433 56.535C65.3766 56.3229 65.0466 56.13 64.677 55.9167V57.3083L62.6262 58.4967L64.677 59.6929V72.4696C65.0329 72.6754 65.3874 72.8825 65.7433 73.0879L77.7958 66.1217V51.9454L75.7529 50.7487ZM40.4662 59.66C39.8074 60.0404 39.1474 60.4187 38.4887 60.7992V75.065C42.5041 77.3879 46.5229 79.705 50.5412 82.0229L62.5937 75.065V60.8887L60.5512 59.6925L50.5416 65.4787C47.0804 63.4771 43.4529 61.3833 40.4662 59.66Z" fill="#49373B"/>
</svg>
