<svg width="122" height="100" viewBox="0 0 122 100" fill="none" xmlns="http://www.w3.org/2000/svg">
<path fill-rule="evenodd" clip-rule="evenodd" d="M60.7989 15C46.4525 15 37.4861 22.6856 33.8994 38.0566C39.2793 30.371 45.5559 27.489 52.7291 29.4103C56.8218 30.5066 59.7471 33.6878 62.9849 37.2093C68.2596 42.9457 74.3644 49.5849 87.6983 49.5849C102.045 49.5849 111.011 41.8994 114.598 26.5283C109.218 34.2138 102.941 37.0959 95.7682 35.1745C91.6756 34.0782 88.7505 30.8971 85.5126 27.3757C80.238 21.6392 74.1329 15 60.7989 15ZM33.8994 49.5849C19.5531 49.5849 10.5866 57.2704 7 72.6417C12.3799 64.956 18.6565 62.0739 25.8296 63.9953C29.9223 65.0915 32.8476 68.2727 36.0855 71.7939C41.3601 77.5304 47.4649 84.17 60.7989 84.17C75.1453 84.17 84.1115 76.4844 87.6983 61.1132C82.3185 68.7987 76.0419 71.681 68.8687 69.7596C64.776 68.6632 61.8507 65.482 58.6129 61.9605C53.3382 56.2242 47.2334 49.5849 33.8994 49.5849Z" stroke="#49373B" stroke-width="7" stroke-linejoin="round"/>
</svg>
