<svg width="101" height="100" viewBox="0 0 101 100" fill="none" xmlns="http://www.w3.org/2000/svg">
<g clip-path="url(#clip0_646_2137)">
<path d="M50.8946 16.6665C44.0548 16.6665 38.1744 18.5126 33.5586 22.469C28.976 26.3969 25.9781 32.1151 24.3151 39.2424C23.9521 40.7978 24.7437 42.3922 26.2021 43.0434C27.6606 43.6947 29.3761 43.2198 30.292 41.9113C32.4029 38.8958 34.5105 37.0839 36.5355 36.154C38.4967 35.2535 40.6107 35.071 43.0321 35.7196C45.4757 36.3742 47.3673 38.2911 50.3371 41.5209L50.433 41.6253C52.6716 44.0602 55.4024 47.0305 59.1375 49.335C63.0132 51.7264 67.8362 53.3331 74.2282 53.3331C81.0675 53.3331 86.9482 51.487 91.5642 47.5306C96.1462 43.6027 99.1442 37.8845 100.808 30.7572C101.17 29.2018 100.379 27.6074 98.9202 26.9562C97.4622 26.3049 95.7462 26.7797 94.8302 28.0882C92.7195 31.1038 90.6122 32.9156 88.5869 33.8456C86.6255 34.7461 84.5115 34.9286 82.0902 34.28C79.6469 33.6254 77.7549 31.7085 74.7855 28.4786L74.6895 28.3742C72.4509 25.9394 69.7202 22.969 65.985 20.6646C62.1093 18.2732 57.2864 16.6665 50.8946 16.6665Z" fill="#49373B"/>
<path d="M27.5616 46.6665C20.7218 46.6665 14.8414 48.5126 10.2256 52.469C5.643 56.3969 2.64514 62.115 0.982108 69.2426C0.61916 70.7979 1.41064 72.3919 2.8691 73.0432C4.32757 73.6946 6.04304 73.2199 6.95902 71.9112C9.06986 68.8959 11.1775 67.0839 13.2025 66.154C15.1637 65.2535 17.2777 65.071 19.6991 65.7196C22.1427 66.3742 24.0343 68.2912 27.0041 71.5212L27.1 71.6252C29.3385 74.0599 32.0695 77.0306 35.8045 79.3352C39.6802 81.7266 44.5031 83.3332 50.8949 83.3332C57.7347 83.3332 63.6151 81.4872 68.2312 77.5306C72.8132 73.6026 75.8112 67.8846 77.4745 60.7572C77.8372 59.2017 77.0459 57.6074 75.5872 56.9561C74.1292 56.3048 72.4132 56.7797 71.4972 58.0882C69.3865 61.1038 67.2791 62.9156 65.2539 63.8455C63.2928 64.746 61.1788 64.9286 58.7573 64.28C56.3138 63.6254 54.4222 61.7084 51.4525 58.4786L51.3565 58.3742C49.1179 55.9394 46.3871 52.969 42.652 50.6645C38.7763 48.2732 33.9534 46.6665 27.5616 46.6665Z" fill="#49373B"/>
</g>
<defs>
<clipPath id="clip0_646_2137">
<rect width="100" height="100" fill="white" transform="translate(0.894531)"/>
</clipPath>
</defs>
</svg>
