<svg width="464" height="464" viewBox="0 0 464 464" fill="none" xmlns="http://www.w3.org/2000/svg">
<g clip-path="url(#clip0_558_1699)">
<path d="M464 232C464.081 286.764 444.709 339.777 409.34 381.588C408.055 383.113 406.747 384.614 405.414 386.107C389.732 403.744 371.465 418.899 351.235 431.054C346.595 433.84 341.854 436.465 337.01 438.93C336.521 439.178 336.023 439.427 335.533 439.668C334.947 439.965 334.353 440.254 333.759 440.543C321.503 446.542 308.736 451.437 295.611 455.17C294.247 455.555 292.879 455.93 291.509 456.293C274.244 460.862 256.508 463.418 238.655 463.912C237.724 463.936 236.809 463.952 235.926 463.968C235.613 463.976 235.307 463.984 235.002 463.984C233.999 463.992 233.004 464 232 464C213.186 464.014 194.441 461.742 176.176 457.233C174.345 456.783 172.523 456.31 170.709 455.812C161.152 453.203 151.775 449.977 142.636 446.155C137.819 444.148 133.088 441.983 128.443 439.66C127.391 439.13 126.34 438.6 125.304 438.055C124.863 437.838 124.429 437.605 123.996 437.38C99.2369 424.312 77.0339 406.893 58.4496 385.955C57.1652 384.518 55.9048 383.057 54.6605 381.588C34.1841 357.31 18.91 329.087 9.78424 298.666C0.658501 268.245 -2.12458 236.275 1.60739 204.735C5.33936 173.195 15.5069 142.757 31.4803 115.306C47.4537 87.8554 68.8928 63.9762 94.4698 45.1477C95.7863 44.1763 97.1109 43.213 98.4515 42.2738C98.7164 42.0891 98.9813 41.9045 99.2463 41.7199C122.802 25.2198 149.241 13.2799 177.195 6.51847C178.785 6.12511 180.374 5.75584 181.98 5.41065C212.258 -1.21243 243.549 -1.76089 274.041 3.79708C275.639 4.09411 277.236 4.39916 278.826 4.7283C306.529 10.4107 332.952 21.1403 356.774 36.3815C357.304 36.7186 357.834 37.0558 358.364 37.409C359.431 38.0994 360.499 38.8058 361.551 39.5203C393.108 60.736 418.96 89.3912 436.827 122.959C454.693 156.526 464.025 193.974 464 232Z" fill="#F4F0F1"/>
<path d="M173.398 352.022L99.2459 358.605L98.4512 358.677V42.2739C98.7161 42.0893 98.981 41.9047 99.2459 41.72C114.7 30.9105 131.417 22.0303 149.026 15.2769L152.815 67.5371L153.16 72.3216L156.909 124.148L158.065 140.091L173.261 350.176L173.398 352.022Z" fill="#C8B6BB"/>
<path d="M356.775 36.3815C357.305 36.7187 357.834 37.0558 358.364 37.409V358.677L356.775 358.532L283.426 352.022L283.562 350.176L298.759 140.091L299.915 124.148L303.664 72.3214L304.009 67.5369L307.982 12.7319C325.119 18.6719 341.496 26.6098 356.775 36.3815Z" fill="#C8B6BB"/>
<path d="M356.774 36.3813V363.06C356.774 369.329 352.455 374.427 347.141 374.427H108.88C104.48 374.427 100.747 370.927 99.6156 366.15C99.3685 365.139 99.2445 364.101 99.2463 363.06V41.7198C98.9814 41.9044 98.7165 42.0891 98.4516 42.2737C97.111 43.2129 95.7864 44.1762 94.4698 45.1476V363.06C94.3987 367.822 96.1771 372.426 99.4309 375.904C101.137 377.692 103.295 378.984 105.676 379.645C106.72 379.929 107.798 380.072 108.88 380.07H347.141C348.226 380.072 349.305 379.928 350.352 379.645C356.758 377.919 361.551 371.144 361.551 363.06V39.5202C360.499 38.8057 359.431 38.0993 358.364 37.4089C357.834 37.0557 357.304 36.7185 356.774 36.3813Z" fill="#C8B6BB"/>
<path d="M359.165 67.54H96.8584V72.3237H359.165V67.54Z" fill="#C8B6BB"/>
<path d="M177.195 6.51846C178.785 6.1251 180.374 5.75583 181.98 5.41064V135.307H177.195V6.51846Z" fill="#C8B6BB"/>
<path d="M274.041 3.79688C275.639 4.0939 277.236 4.39895 278.826 4.72809V135.306H274.041V3.79688Z" fill="#C8B6BB"/>
<path d="M389.062 350.176H74.9306C69.2205 350.176 63.7442 352.444 59.7065 356.482C55.6688 360.52 53.4004 365.996 53.4004 371.706C53.4004 377.416 55.6688 382.893 59.7065 386.93C63.7442 390.968 69.2205 393.236 74.9306 393.236H389.062C392.119 393.237 395.142 392.585 397.927 391.324C400.713 390.062 403.197 388.221 405.214 385.923C406.127 384.884 406.938 383.761 407.638 382.567C408.18 381.653 408.649 380.697 409.043 379.71C410.354 376.443 410.844 372.905 410.47 369.405C410.096 365.906 408.869 362.551 406.897 359.636C404.924 356.72 402.267 354.333 399.158 352.684C396.048 351.035 392.582 350.174 389.062 350.176Z" fill="#C8B6BB"/>
<path d="M359.165 124.147H98.4531V140.093H359.165V124.147Z" fill="#C8B6BB"/>
<path d="M226.417 119.363H231.2C232.352 119.363 233.492 119.59 234.556 120.031C235.621 120.472 236.587 121.118 237.402 121.932C238.216 122.746 238.862 123.713 239.303 124.777C239.744 125.841 239.97 126.982 239.97 128.133H217.646C217.646 125.807 218.57 123.577 220.215 121.932C221.86 120.287 224.091 119.363 226.417 119.363H226.417Z" fill="#C8B6BB"/>
<path d="M409.339 381.588C402.365 389.851 394.822 397.617 386.765 404.828H77.234C69.177 397.617 61.634 389.851 54.6602 381.588H409.339Z" fill="#49373B"/>
<path d="M257.914 301.094H205.798C205.517 301.091 205.238 301.135 204.971 301.223C204.405 301.398 203.911 301.749 203.56 302.226C203.208 302.703 203.02 303.28 203.021 303.872V386.204H260.699V303.872C260.699 303.507 260.627 303.145 260.486 302.808C260.346 302.47 260.141 302.164 259.882 301.906C259.624 301.648 259.317 301.443 258.979 301.304C258.641 301.165 258.279 301.094 257.914 301.094ZM238.19 341.714C238.192 343.05 237.751 344.348 236.937 345.407C236.161 346.435 235.081 347.193 233.851 347.574C232.621 347.956 231.302 347.942 230.08 347.534C228.858 347.126 227.795 346.345 227.041 345.301C226.287 344.257 225.879 343.002 225.875 341.714V332.162C225.89 330.538 226.546 328.987 227.699 327.844C228.852 326.702 230.409 326.061 232.033 326.061C233.656 326.061 235.213 326.702 236.366 327.844C237.519 328.987 238.175 330.538 238.19 332.162V341.714Z" fill="#2C2124"/>
<path d="M202.844 383.571V391.51C202.844 391.922 203.007 392.317 203.297 392.609C203.587 392.901 203.981 393.066 204.393 393.068H259.327C259.738 393.064 260.131 392.899 260.421 392.607C260.711 392.316 260.875 391.921 260.876 391.51V383.571H202.844Z" fill="#49373B"/>
<path d="M344.211 172.611H121.443C119.529 172.614 117.694 173.375 116.339 174.727C114.985 176.08 114.222 177.914 114.218 179.828V330.155C114.219 332.07 114.981 333.907 116.336 335.262C117.69 336.616 119.527 337.378 121.443 337.38H344.211C346.127 337.378 347.963 336.616 349.318 335.262C350.673 333.907 351.434 332.07 351.436 330.155V179.828C351.431 177.914 350.668 176.08 349.314 174.727C347.96 173.375 346.125 172.614 344.211 172.611Z" fill="#49373B"/>
<path d="M342.348 177.829H123.297C122.272 177.831 121.29 178.24 120.566 178.965C119.842 179.691 119.436 180.674 119.436 181.698V328.3C119.437 329.324 119.845 330.305 120.568 331.028C121.292 331.752 122.273 332.16 123.297 332.161H342.348C343.372 332.16 344.353 331.752 345.077 331.028C345.8 330.305 346.208 329.324 346.21 328.3V181.698C346.209 180.674 345.803 179.691 345.079 178.965C344.355 178.24 343.373 177.831 342.348 177.829Z" fill="#FFB3C7"/>
<path d="M302.033 392.939L300.01 383.33C299.927 382.938 299.746 382.573 299.485 382.269C299.224 381.965 298.892 381.731 298.517 381.588C298.246 381.481 297.958 381.427 297.666 381.427H171.383C171.092 381.427 170.803 381.481 170.532 381.588C170.158 381.731 169.825 381.965 169.564 382.269C169.303 382.573 169.123 382.938 169.039 383.33L167.016 392.939C166.943 393.288 166.948 393.648 167.032 393.995C167.116 394.341 167.276 394.665 167.5 394.941C167.725 395.218 168.008 395.442 168.33 395.595C168.652 395.749 169.003 395.828 169.36 395.829H299.681C300.039 395.831 300.392 395.751 300.715 395.597C301.037 395.443 301.321 395.217 301.544 394.938C301.769 394.662 301.929 394.339 302.014 393.994C302.099 393.648 302.105 393.288 302.033 392.939Z" fill="#2C2124"/>
<path d="M175.931 383.158H172.7C172.484 383.158 172.309 383.333 172.309 383.55V385.174C172.309 385.391 172.484 385.566 172.7 385.566H175.931C176.147 385.566 176.322 385.391 176.322 385.174V383.55C176.322 383.333 176.147 383.158 175.931 383.158Z" fill="#49373B"/>
<path d="M183.958 383.158H180.728C180.511 383.158 180.336 383.333 180.336 383.55V385.174C180.336 385.391 180.511 385.566 180.728 385.566H183.958C184.174 385.566 184.35 385.391 184.35 385.174V383.55C184.35 383.333 184.174 383.158 183.958 383.158Z" fill="#49373B"/>
<path d="M191.986 383.158H188.756C188.54 383.158 188.364 383.333 188.364 383.55V385.174C188.364 385.391 188.54 385.566 188.756 385.566H191.986C192.203 385.566 192.378 385.391 192.378 385.174V383.55C192.378 383.333 192.203 383.158 191.986 383.158Z" fill="#49373B"/>
<path d="M200.014 383.158H196.784C196.567 383.158 196.392 383.333 196.392 383.55V385.174C196.392 385.391 196.567 385.566 196.784 385.566H200.014C200.23 385.566 200.405 385.391 200.405 385.174V383.55C200.405 383.333 200.23 383.158 200.014 383.158Z" fill="#49373B"/>
<path d="M208.041 383.158H204.811C204.594 383.158 204.419 383.333 204.419 383.55V385.174C204.419 385.391 204.594 385.566 204.811 385.566H208.041C208.257 385.566 208.433 385.391 208.433 385.174V383.55C208.433 383.333 208.257 383.158 208.041 383.158Z" fill="#49373B"/>
<path d="M216.069 383.158H212.839C212.623 383.158 212.447 383.333 212.447 383.55V385.174C212.447 385.391 212.623 385.566 212.839 385.566H216.069C216.286 385.566 216.461 385.391 216.461 385.174V383.55C216.461 383.333 216.286 383.158 216.069 383.158Z" fill="#49373B"/>
<path d="M224.097 383.158H220.867C220.65 383.158 220.475 383.333 220.475 383.55V385.174C220.475 385.391 220.65 385.566 220.867 385.566H224.097C224.313 385.566 224.488 385.391 224.488 385.174V383.55C224.488 383.333 224.313 383.158 224.097 383.158Z" fill="#49373B"/>
<path d="M232.124 383.158H228.894C228.677 383.158 228.502 383.333 228.502 383.55V385.174C228.502 385.391 228.677 385.566 228.894 385.566H232.124C232.34 385.566 232.516 385.391 232.516 385.174V383.55C232.516 383.333 232.34 383.158 232.124 383.158Z" fill="#49373B"/>
<path d="M240.152 383.158H236.922C236.706 383.158 236.53 383.333 236.53 383.55V385.174C236.53 385.391 236.706 385.566 236.922 385.566H240.152C240.369 385.566 240.544 385.391 240.544 385.174V383.55C240.544 383.333 240.369 383.158 240.152 383.158Z" fill="#49373B"/>
<path d="M248.18 383.158H244.95C244.733 383.158 244.558 383.333 244.558 383.55V385.174C244.558 385.391 244.733 385.566 244.95 385.566H248.18C248.396 385.566 248.571 385.391 248.571 385.174V383.55C248.571 383.333 248.396 383.158 248.18 383.158Z" fill="#49373B"/>
<path d="M256.207 383.158H252.977C252.76 383.158 252.585 383.333 252.585 383.55V385.174C252.585 385.391 252.76 385.566 252.977 385.566H256.207C256.423 385.566 256.599 385.391 256.599 385.174V383.55C256.599 383.333 256.423 383.158 256.207 383.158Z" fill="#49373B"/>
<path d="M264.235 383.158H261.005C260.789 383.158 260.613 383.333 260.613 383.55V385.174C260.613 385.391 260.789 385.566 261.005 385.566H264.235C264.452 385.566 264.627 385.391 264.627 385.174V383.55C264.627 383.333 264.452 383.158 264.235 383.158Z" fill="#49373B"/>
<path d="M272.263 383.158H269.033C268.816 383.158 268.641 383.333 268.641 383.55V385.174C268.641 385.391 268.816 385.566 269.033 385.566H272.263C272.479 385.566 272.654 385.391 272.654 385.174V383.55C272.654 383.333 272.479 383.158 272.263 383.158Z" fill="#49373B"/>
<path d="M280.29 383.158H277.06C276.843 383.158 276.668 383.333 276.668 383.55V385.174C276.668 385.391 276.843 385.566 277.06 385.566H280.29C280.506 385.566 280.682 385.391 280.682 385.174V383.55C280.682 383.333 280.506 383.158 280.29 383.158Z" fill="#49373B"/>
<path d="M288.318 383.158H285.088C284.872 383.158 284.696 383.333 284.696 383.55V385.174C284.696 385.391 284.872 385.566 285.088 385.566H288.318C288.535 385.566 288.71 385.391 288.71 385.174V383.55C288.71 383.333 288.535 383.158 288.318 383.158Z" fill="#49373B"/>
<path d="M296.346 383.158H293.116C292.899 383.158 292.724 383.333 292.724 383.55V385.174C292.724 385.391 292.899 385.566 293.116 385.566H296.346C296.562 385.566 296.737 385.391 296.737 385.174V383.55C296.737 383.333 296.562 383.158 296.346 383.158Z" fill="#49373B"/>
<path d="M175.836 387.172H172.606C172.389 387.172 172.214 387.347 172.214 387.564V389.188C172.214 389.405 172.389 389.58 172.606 389.58H175.836C176.052 389.58 176.228 389.405 176.228 389.188V387.564C176.228 387.347 176.052 387.172 175.836 387.172Z" fill="#49373B"/>
<path d="M183.863 387.172H180.633C180.417 387.172 180.241 387.347 180.241 387.564V389.188C180.241 389.405 180.417 389.58 180.633 389.58H183.863C184.08 389.58 184.255 389.405 184.255 389.188V387.564C184.255 387.347 184.08 387.172 183.863 387.172Z" fill="#49373B"/>
<path d="M191.891 387.172H188.661C188.445 387.172 188.27 387.347 188.27 387.564V389.188C188.27 389.405 188.445 389.58 188.661 389.58H191.891C192.108 389.58 192.283 389.405 192.283 389.188V387.564C192.283 387.347 192.108 387.172 191.891 387.172Z" fill="#49373B"/>
<path d="M199.919 387.172H196.689C196.472 387.172 196.297 387.347 196.297 387.564V389.188C196.297 389.405 196.472 389.58 196.689 389.58H199.919C200.135 389.58 200.311 389.405 200.311 389.188V387.564C200.311 387.347 200.135 387.172 199.919 387.172Z" fill="#49373B"/>
<path d="M207.946 387.172H204.716C204.5 387.172 204.324 387.347 204.324 387.564V389.188C204.324 389.405 204.5 389.58 204.716 389.58H207.946C208.163 389.58 208.338 389.405 208.338 389.188V387.564C208.338 387.347 208.163 387.172 207.946 387.172Z" fill="#49373B"/>
<path d="M215.974 387.172H212.744C212.528 387.172 212.353 387.347 212.353 387.564V389.188C212.353 389.405 212.528 389.58 212.744 389.58H215.974C216.191 389.58 216.366 389.405 216.366 389.188V387.564C216.366 387.347 216.191 387.172 215.974 387.172Z" fill="#49373B"/>
<path d="M224.002 387.172H220.772C220.555 387.172 220.38 387.347 220.38 387.564V389.188C220.38 389.405 220.555 389.58 220.772 389.58H224.002C224.218 389.58 224.394 389.405 224.394 389.188V387.564C224.394 387.347 224.218 387.172 224.002 387.172Z" fill="#49373B"/>
<path d="M232.029 387.172H228.799C228.583 387.172 228.407 387.347 228.407 387.564V389.188C228.407 389.405 228.583 389.58 228.799 389.58H232.029C232.246 389.58 232.421 389.405 232.421 389.188V387.564C232.421 387.347 232.246 387.172 232.029 387.172Z" fill="#49373B"/>
<path d="M240.057 387.172H236.827C236.611 387.172 236.436 387.347 236.436 387.564V389.188C236.436 389.405 236.611 389.58 236.827 389.58H240.057C240.274 389.58 240.449 389.405 240.449 389.188V387.564C240.449 387.347 240.274 387.172 240.057 387.172Z" fill="#49373B"/>
<path d="M248.085 387.172H244.855C244.638 387.172 244.463 387.347 244.463 387.564V389.188C244.463 389.405 244.638 389.58 244.855 389.58H248.085C248.301 389.58 248.477 389.405 248.477 389.188V387.564C248.477 387.347 248.301 387.172 248.085 387.172Z" fill="#49373B"/>
<path d="M256.112 387.172H252.882C252.666 387.172 252.49 387.347 252.49 387.564V389.188C252.49 389.405 252.666 389.58 252.882 389.58H256.112C256.329 389.58 256.504 389.405 256.504 389.188V387.564C256.504 387.347 256.329 387.172 256.112 387.172Z" fill="#49373B"/>
<path d="M264.14 387.172H260.91C260.694 387.172 260.519 387.347 260.519 387.564V389.188C260.519 389.405 260.694 389.58 260.91 389.58H264.14C264.357 389.58 264.532 389.405 264.532 389.188V387.564C264.532 387.347 264.357 387.172 264.14 387.172Z" fill="#49373B"/>
<path d="M272.168 387.172H268.938C268.721 387.172 268.546 387.347 268.546 387.564V389.188C268.546 389.405 268.721 389.58 268.938 389.58H272.168C272.384 389.58 272.56 389.405 272.56 389.188V387.564C272.56 387.347 272.384 387.172 272.168 387.172Z" fill="#49373B"/>
<path d="M280.195 387.172H276.965C276.749 387.172 276.573 387.347 276.573 387.564V389.188C276.573 389.405 276.749 389.58 276.965 389.58H280.195C280.412 389.58 280.587 389.405 280.587 389.188V387.564C280.587 387.347 280.412 387.172 280.195 387.172Z" fill="#49373B"/>
<path d="M288.224 387.172H284.993C284.777 387.172 284.602 387.347 284.602 387.564V389.188C284.602 389.405 284.777 389.58 284.993 389.58H288.224C288.44 389.58 288.615 389.405 288.615 389.188V387.564C288.615 387.347 288.44 387.172 288.224 387.172Z" fill="#49373B"/>
<path d="M296.251 387.172H293.021C292.804 387.172 292.629 387.347 292.629 387.564V389.188C292.629 389.405 292.804 389.58 293.021 389.58H296.251C296.467 389.58 296.643 389.405 296.643 389.188V387.564C296.643 387.347 296.467 387.172 296.251 387.172Z" fill="#49373B"/>
<path d="M242.466 391.988H211.139C210.923 391.988 210.747 392.164 210.747 392.38V394.005C210.747 394.221 210.923 394.397 211.139 394.397H242.466C242.682 394.397 242.858 394.221 242.858 394.005V392.38C242.858 392.164 242.682 391.988 242.466 391.988Z" fill="#49373B"/>
<path d="M331.341 198.024H126.376C126.162 198.02 125.96 197.932 125.811 197.779C125.662 197.627 125.578 197.422 125.578 197.209C125.578 196.996 125.662 196.791 125.811 196.639C125.96 196.487 126.162 196.399 126.376 196.394H331.341C331.554 196.399 331.757 196.487 331.906 196.639C332.055 196.791 332.138 196.996 332.138 197.209C332.138 197.422 332.055 197.627 331.906 197.779C331.757 197.932 331.554 198.02 331.341 198.024Z" fill="#49373B"/>
<path d="M140.328 192.232C142.966 192.232 145.104 190.046 145.104 187.349C145.104 184.652 142.966 182.466 140.328 182.466C137.689 182.466 135.551 184.652 135.551 187.349C135.551 190.046 137.689 192.232 140.328 192.232Z" fill="#49373B"/>
<path d="M156.83 192.232C159.468 192.232 161.606 190.046 161.606 187.349C161.606 184.652 159.468 182.466 156.83 182.466C154.191 182.466 152.053 184.652 152.053 187.349C152.053 190.046 154.191 192.232 156.83 192.232Z" fill="#49373B"/>
<path d="M173.332 192.232C175.97 192.232 178.108 190.046 178.108 187.349C178.108 184.652 175.97 182.466 173.332 182.466C170.693 182.466 168.555 184.652 168.555 187.349C168.555 190.046 170.693 192.232 173.332 192.232Z" fill="#49373B"/>
<path d="M321.404 183.673H309.684C309.452 183.679 309.232 183.775 309.07 183.94C308.908 184.106 308.817 184.329 308.817 184.56C308.817 184.792 308.908 185.015 309.07 185.18C309.232 185.346 309.452 185.442 309.684 185.447H321.404C321.638 185.444 321.86 185.349 322.024 185.183C322.187 185.017 322.279 184.794 322.279 184.56C322.279 184.327 322.187 184.104 322.024 183.938C321.86 183.772 321.638 183.677 321.404 183.673Z" fill="#49373B"/>
<path d="M321.404 187.005H309.684C309.452 187.01 309.232 187.106 309.069 187.272C308.907 187.437 308.816 187.66 308.816 187.892C308.816 188.124 308.907 188.347 309.069 188.512C309.232 188.678 309.452 188.774 309.684 188.779H321.404C321.638 188.776 321.861 188.681 322.025 188.515C322.189 188.349 322.281 188.125 322.281 187.892C322.281 187.658 322.189 187.434 322.025 187.268C321.861 187.102 321.638 187.008 321.404 187.005Z" fill="#49373B"/>
<path d="M321.404 190.336H309.684C309.452 190.342 309.232 190.438 309.07 190.603C308.908 190.769 308.817 190.992 308.817 191.223C308.817 191.455 308.908 191.678 309.07 191.844C309.232 192.009 309.452 192.105 309.684 192.111H321.404C321.638 192.107 321.86 192.012 322.024 191.846C322.187 191.68 322.279 191.457 322.279 191.223C322.279 190.99 322.187 190.767 322.024 190.601C321.86 190.435 321.638 190.34 321.404 190.336Z" fill="#49373B"/>
<path d="M144.049 216.967H139.837C138.56 216.967 137.525 218.002 137.525 219.279C137.525 220.556 138.56 221.591 139.837 221.591H144.049C145.326 221.591 146.361 220.556 146.361 219.279C146.361 218.002 145.326 216.967 144.049 216.967Z" fill="#F4F0F1"/>
<path d="M192.215 216.967H188.003C186.726 216.967 185.691 218.002 185.691 219.279C185.691 220.556 186.726 221.591 188.003 221.591H192.215C193.492 221.591 194.527 220.556 194.527 219.279C194.527 218.002 193.492 216.967 192.215 216.967Z" fill="#F4F0F1"/>
<path d="M205.862 216.967H201.651C200.374 216.967 199.339 218.002 199.339 219.279C199.339 220.556 200.374 221.591 201.651 221.591H205.862C207.139 221.591 208.174 220.556 208.174 219.279C208.174 218.002 207.139 216.967 205.862 216.967Z" fill="#F4F0F1"/>
<path d="M179.114 216.582H152.939C151.662 216.582 150.627 217.617 150.627 218.893C150.627 220.17 151.662 221.205 152.939 221.205H179.114C180.391 221.205 181.426 220.17 181.426 218.893C181.426 217.617 180.391 216.582 179.114 216.582Z" fill="#F4F0F1"/>
<path d="M243.335 216.582H217.161C215.884 216.582 214.849 217.617 214.849 218.893C214.849 220.17 215.884 221.205 217.161 221.205H243.335C244.612 221.205 245.647 220.17 245.647 218.893C245.647 217.617 244.612 216.582 243.335 216.582Z" fill="#F4F0F1"/>
<path d="M156.894 227.403H152.682C151.405 227.403 150.37 228.438 150.37 229.715C150.37 230.992 151.405 232.027 152.682 232.027H156.894C158.17 232.027 159.205 230.992 159.205 229.715C159.205 228.438 158.17 227.403 156.894 227.403Z" fill="#F4F0F1"/>
<path d="M205.06 227.403H200.848C199.571 227.403 198.536 228.438 198.536 229.715C198.536 230.992 199.571 232.027 200.848 232.027H205.06C206.336 232.027 207.371 230.992 207.371 229.715C207.371 228.438 206.336 227.403 205.06 227.403Z" fill="#F4F0F1"/>
<path d="M218.706 227.403H214.495C213.218 227.403 212.183 228.438 212.183 229.715C212.183 230.992 213.218 232.027 214.495 232.027H218.706C219.983 232.027 221.018 230.992 221.018 229.715C221.018 228.438 219.983 227.403 218.706 227.403Z" fill="#F4F0F1"/>
<path d="M191.958 227.017H165.783C164.506 227.017 163.471 228.052 163.471 229.329C163.471 230.606 164.506 231.641 165.783 231.641H191.958C193.234 231.641 194.269 230.606 194.269 229.329C194.269 228.052 193.234 227.017 191.958 227.017Z" fill="#F4F0F1"/>
<path d="M256.179 227.017H230.004C228.727 227.017 227.692 228.052 227.692 229.329C227.692 230.606 228.727 231.641 230.004 231.641H256.179C257.456 231.641 258.491 230.606 258.491 229.329C258.491 228.052 257.456 227.017 256.179 227.017Z" fill="#F4F0F1"/>
<path d="M169.737 237.839H165.526C164.249 237.839 163.214 238.874 163.214 240.151C163.214 241.428 164.249 242.463 165.526 242.463H169.737C171.014 242.463 172.049 241.428 172.049 240.151C172.049 238.874 171.014 237.839 169.737 237.839Z" fill="#F4F0F1"/>
<path d="M217.903 237.839H213.692C212.415 237.839 211.38 238.874 211.38 240.151C211.38 241.428 212.415 242.463 213.692 242.463H217.903C219.18 242.463 220.215 241.428 220.215 240.151C220.215 238.874 219.18 237.839 217.903 237.839Z" fill="#F4F0F1"/>
<path d="M231.551 237.839H227.339C226.062 237.839 225.027 238.874 225.027 240.151C225.027 241.428 226.062 242.463 227.339 242.463H231.551C232.828 242.463 233.863 241.428 233.863 240.151C233.863 238.874 232.828 237.839 231.551 237.839Z" fill="#F4F0F1"/>
<path d="M204.802 237.453H178.627C177.351 237.453 176.315 238.488 176.315 239.765C176.315 241.042 177.351 242.077 178.627 242.077H204.802C206.079 242.077 207.114 241.042 207.114 239.765C207.114 238.488 206.079 237.453 204.802 237.453Z" fill="#F4F0F1"/>
<path d="M269.024 237.453H242.849C241.572 237.453 240.537 238.488 240.537 239.765C240.537 241.042 241.572 242.077 242.849 242.077H269.024C270.301 242.077 271.336 241.042 271.336 239.765C271.336 238.488 270.301 237.453 269.024 237.453Z" fill="#F4F0F1"/>
<path d="M182.582 248.275H178.371C177.094 248.275 176.059 249.31 176.059 250.587C176.059 251.864 177.094 252.899 178.371 252.899H182.582C183.859 252.899 184.894 251.864 184.894 250.587C184.894 249.31 183.859 248.275 182.582 248.275Z" fill="#F4F0F1"/>
<path d="M230.748 248.275H226.537C225.26 248.275 224.225 249.31 224.225 250.587C224.225 251.864 225.26 252.899 226.537 252.899H230.748C232.025 252.899 233.06 251.864 233.06 250.587C233.06 249.31 232.025 248.275 230.748 248.275Z" fill="#F4F0F1"/>
<path d="M244.394 248.275H240.183C238.906 248.275 237.871 249.31 237.871 250.587C237.871 251.864 238.906 252.899 240.183 252.899H244.394C245.671 252.899 246.706 251.864 246.706 250.587C246.706 249.31 245.671 248.275 244.394 248.275Z" fill="#F4F0F1"/>
<path d="M217.647 247.889H191.472C190.195 247.889 189.16 248.924 189.16 250.201C189.16 251.478 190.195 252.513 191.472 252.513H217.647C218.924 252.513 219.959 251.478 219.959 250.201C219.959 248.924 218.924 247.889 217.647 247.889Z" fill="#F4F0F1"/>
<path d="M192.215 289.772H188.003C186.726 289.772 185.691 290.808 185.691 292.084C185.691 293.361 186.726 294.396 188.003 294.396H192.215C193.492 294.396 194.527 293.361 194.527 292.084C194.527 290.808 193.492 289.772 192.215 289.772Z" fill="#F4F0F1"/>
<path d="M205.862 289.772H201.651C200.374 289.772 199.339 290.808 199.339 292.084C199.339 293.361 200.374 294.396 201.651 294.396H205.862C207.139 294.396 208.174 293.361 208.174 292.084C208.174 290.808 207.139 289.772 205.862 289.772Z" fill="#F4F0F1"/>
<path d="M243.335 290.158H217.161C215.884 290.158 214.849 291.193 214.849 292.47C214.849 293.747 215.884 294.782 217.161 294.782H243.335C244.612 294.782 245.647 293.747 245.647 292.47C245.647 291.193 244.612 290.158 243.335 290.158Z" fill="#F4F0F1"/>
<path d="M144.049 289.772H139.837C138.56 289.772 137.525 290.808 137.525 292.084C137.525 293.361 138.56 294.396 139.837 294.396H144.049C145.326 294.396 146.361 293.361 146.361 292.084C146.361 290.808 145.326 289.772 144.049 289.772Z" fill="#F4F0F1"/>
<path d="M179.114 290.158H152.939C151.662 290.158 150.627 291.193 150.627 292.47C150.627 293.747 151.662 294.782 152.939 294.782H179.114C180.391 294.782 181.426 293.747 181.426 292.47C181.426 291.193 180.391 290.158 179.114 290.158Z" fill="#F4F0F1"/>
<path d="M156.894 279.337H152.682C151.405 279.337 150.37 280.372 150.37 281.649C150.37 282.926 151.405 283.961 152.682 283.961H156.894C158.17 283.961 159.205 282.926 159.205 281.649C159.205 280.372 158.17 279.337 156.894 279.337Z" fill="#F4F0F1"/>
<path d="M205.06 279.337H200.848C199.571 279.337 198.536 280.372 198.536 281.649C198.536 282.926 199.571 283.961 200.848 283.961H205.06C206.336 283.961 207.371 282.926 207.371 281.649C207.371 280.372 206.336 279.337 205.06 279.337Z" fill="#F4F0F1"/>
<path d="M218.706 279.337H214.495C213.218 279.337 212.183 280.372 212.183 281.649C212.183 282.926 213.218 283.961 214.495 283.961H218.706C219.983 283.961 221.018 282.926 221.018 281.649C221.018 280.372 219.983 279.337 218.706 279.337Z" fill="#F4F0F1"/>
<path d="M191.958 279.722H165.783C164.506 279.722 163.471 280.757 163.471 282.034C163.471 283.311 164.506 284.346 165.783 284.346H191.958C193.234 284.346 194.269 283.311 194.269 282.034C194.269 280.757 193.234 279.722 191.958 279.722Z" fill="#F4F0F1"/>
<path d="M169.737 268.901H165.526C164.249 268.901 163.214 269.936 163.214 271.213C163.214 272.49 164.249 273.525 165.526 273.525H169.737C171.014 273.525 172.049 272.49 172.049 271.213C172.049 269.936 171.014 268.901 169.737 268.901Z" fill="#F4F0F1"/>
<path d="M217.903 268.901H213.692C212.415 268.901 211.38 269.936 211.38 271.213C211.38 272.49 212.415 273.525 213.692 273.525H217.903C219.18 273.525 220.215 272.49 220.215 271.213C220.215 269.936 219.18 268.901 217.903 268.901Z" fill="#F4F0F1"/>
<path d="M231.551 268.901H227.339C226.062 268.901 225.027 269.936 225.027 271.213C225.027 272.49 226.062 273.525 227.339 273.525H231.551C232.828 273.525 233.863 272.49 233.863 271.213C233.863 269.936 232.828 268.901 231.551 268.901Z" fill="#F4F0F1"/>
<path d="M204.802 269.286H178.627C177.351 269.286 176.315 270.321 176.315 271.598C176.315 272.875 177.351 273.91 178.627 273.91H204.802C206.079 273.91 207.114 272.875 207.114 271.598C207.114 270.321 206.079 269.286 204.802 269.286Z" fill="#F4F0F1"/>
<path d="M182.582 258.465H178.371C177.094 258.465 176.059 259.5 176.059 260.777C176.059 262.054 177.094 263.089 178.371 263.089H182.582C183.859 263.089 184.894 262.054 184.894 260.777C184.894 259.5 183.859 258.465 182.582 258.465Z" fill="#F4F0F1"/>
<path d="M230.748 258.465H226.537C225.26 258.465 224.225 259.5 224.225 260.777C224.225 262.054 225.26 263.089 226.537 263.089H230.748C232.025 263.089 233.06 262.054 233.06 260.777C233.06 259.5 232.025 258.465 230.748 258.465Z" fill="#F4F0F1"/>
<path d="M244.394 258.465H240.183C238.906 258.465 237.871 259.5 237.871 260.777C237.871 262.054 238.906 263.089 240.183 263.089H244.394C245.671 263.089 246.706 262.054 246.706 260.777C246.706 259.5 245.671 258.465 244.394 258.465Z" fill="#F4F0F1"/>
<path d="M217.647 258.85H191.472C190.195 258.85 189.16 259.885 189.16 261.162C189.16 262.439 190.195 263.474 191.472 263.474H217.647C218.924 263.474 219.959 262.439 219.959 261.162C219.959 259.885 218.924 258.85 217.647 258.85Z" fill="#F4F0F1"/>
<path d="M333.799 440.535C333.31 440.784 332.812 441.033 332.322 441.274C319.639 447.615 309.492 451.22 295.612 455.169C294.44 442.084 293.308 419.085 292.208 404.828C291.919 401.127 291.63 398.02 291.349 395.829C291.278 394.664 291.04 393.515 290.643 392.417L290.691 395.829L290.811 404.828L291.51 456.293C274.244 460.862 256.508 463.418 238.655 463.912C237.724 463.936 236.809 463.952 235.926 463.968C235.613 463.976 235.308 463.984 235.003 463.984C233.999 463.992 233.004 464 232 464C213.187 464.014 194.441 461.741 176.176 457.233C176.569 444.284 176.963 421.541 177.34 404.828C177.42 401.561 177.493 398.518 177.573 395.829C177.725 390.081 177.886 385.939 178.038 384.55C177.903 384.796 177.798 385.057 177.725 385.329C176.982 388.79 176.475 392.298 176.208 395.829C175.927 398.518 175.646 401.561 175.365 404.828C173.872 422.192 172.315 445.801 170.709 455.812C161.153 453.203 151.775 449.977 142.636 446.154C137.82 444.147 133.089 441.983 128.443 439.66C129.326 433.88 130.25 427.402 131.197 420.683C131.935 415.473 132.698 410.118 133.477 404.828C134.681 396.656 135.917 388.644 137.169 381.588C139 371.28 140.878 362.996 142.741 359.19C144.507 355.578 146.273 352.014 147.983 348.602C148.577 347.406 149.171 346.226 149.749 345.078C149.885 344.805 150.022 344.54 150.158 344.275C151.386 341.859 152.575 339.547 153.706 337.379C154.678 335.525 155.601 333.775 156.476 332.161C158.595 328.244 160.394 325.121 161.726 323.146C167.297 314.695 175.591 308.404 185.231 305.317L185.472 305.253L185.641 305.325L202.057 300.283L204.457 299.545L206.071 299.047L211.755 294.72L214.845 292.368L217.743 290.16L223.411 285.85L258.5 288.009L265.331 304.458L280.632 310.053L280.897 309.933L281.13 309.836L281.371 309.901C291.009 312.991 299.302 319.281 304.876 327.73C305.63 328.862 306.546 330.355 307.581 332.161C308.464 333.695 309.427 335.445 310.471 337.379C311.956 340.133 313.578 343.24 315.296 346.603C315.673 347.342 316.058 348.096 316.444 348.859C317.158 350.272 317.883 351.714 318.619 353.186C320.329 356.598 322.095 360.162 323.861 363.782C325.395 366.921 326.944 373.375 328.469 381.588C329.729 388.411 330.982 396.455 332.194 404.828C333.783 415.681 332.09 428.678 333.527 438.665C333.615 439.299 333.711 439.917 333.799 440.535Z" fill="#49373B"/>
<path d="M232.493 272.72C255.032 272.72 273.303 254.449 273.303 231.91C273.303 209.372 255.032 191.101 232.493 191.101C209.955 191.101 191.684 209.372 191.684 231.91C191.684 254.449 209.955 272.72 232.493 272.72Z" fill="#d19479"/>
<path d="M299.794 177.829C298.988 175.946 297.914 174.189 296.607 172.611C290.41 165.041 279.139 161.71 267.571 170.669C265.344 170.171 263.023 170.304 260.868 171.054C259.851 171.422 258.897 171.948 258.042 172.611C256.291 173.978 254.924 175.776 254.077 177.829C253.624 178.914 253.326 180.057 253.194 181.225C250.334 179.739 247.308 178.599 244.178 177.829C236.501 175.919 228.472 175.919 220.794 177.829C218.333 178.452 215.964 179.391 213.746 180.623C209.989 182.79 207.829 185.528 207.444 188.57C202.025 188.875 196.39 191.725 192.191 196.397C191.718 196.919 191.26 197.465 190.834 198.027C187.304 202.647 185.406 208.308 185.44 214.122V215.142H186.459C189.253 215.139 192.02 215.679 194.607 216.731C196.284 217.405 197.872 218.281 199.336 219.34C200.293 220.02 201.198 220.771 202.041 221.588C203.996 223.481 205.653 225.66 206.954 228.05C210.289 234.091 211.446 241.095 210.229 247.887C209.95 249.459 209.542 251.006 209.009 252.511C208.251 254.658 207.252 256.713 206.031 258.636C205.983 258.708 205.943 258.78 205.894 258.853C205.357 259.712 204.843 260.587 204.361 261.47C204 262.128 203.663 262.802 203.35 263.477C202.435 265.353 201.662 267.296 201.038 269.289C199.92 272.813 199.262 276.466 199.079 280.158C199.023 281.137 199.007 282.117 199.039 283.096C199.086 285.621 199.363 288.136 199.866 290.61C199.938 290.947 200.01 291.276 200.082 291.614L200.668 294.174L202.057 300.284L203.021 304.49L203.912 308.391L205.228 306.505C205.678 305.863 206.81 303.888 208.327 301.094C209.33 299.272 210.494 297.097 211.755 294.72C213.513 291.389 215.439 287.672 217.326 283.963C218.088 282.462 218.843 280.969 219.574 279.508C220.954 276.738 222.255 274.065 223.371 271.689C224.398 269.497 225.273 267.555 225.923 265.997C226.124 267.017 226.293 268.052 226.421 269.096C226.566 270.156 226.67 271.231 226.726 272.307C226.742 272.468 226.75 272.636 226.758 272.797L226.79 273.455L226.799 273.648L227.649 273.76C232.557 274.286 237.505 274.323 242.42 273.872H242.428C248.94 273.382 255.328 271.834 261.342 269.289C264.757 267.807 267.946 265.85 270.814 263.477C272.155 262.367 273.405 261.154 274.555 259.848C274.844 259.519 275.125 259.19 275.398 258.853C276.987 256.9 278.347 254.772 279.452 252.511C280.192 251.018 280.82 249.473 281.331 247.887C284.413 238.551 284.237 226.903 280.801 213.063C281.729 212.884 282.618 212.542 283.426 212.051C285.946 210.534 287.697 207.524 288.242 203.847L289.109 204.08C292.183 202.648 294.921 200.586 297.145 198.027C297.586 197.506 297.998 196.962 298.381 196.397C302.307 190.617 302.339 183.681 299.794 177.829Z" fill="#2C2124"/>
<path opacity="0.2" d="M165.627 381.552L172.448 355.228L178.471 377.943L165.627 381.552Z" fill="#0F0B0C"/>
<path d="M347.141 364.4C344.7 398.02 347.229 412.823 333.758 440.543C321.502 446.542 308.736 451.437 295.611 455.169C294.246 455.555 292.879 455.929 291.509 456.293C274.243 460.862 256.507 463.418 238.654 463.912C237.723 463.936 236.808 463.952 235.925 463.968C235.612 463.976 235.307 463.984 235.002 463.984C233.998 463.992 233.003 464 232 464C213.186 464.014 194.44 461.741 176.175 457.232C174.345 456.783 172.522 456.309 170.708 455.812C161.152 453.203 151.774 449.977 142.635 446.154C137.819 444.147 133.088 441.983 128.442 439.66C127.391 439.13 126.339 438.6 125.304 438.054C119.981 428.694 116.955 417.311 116.891 403.632C120.575 380.062 339.001 344.074 347.141 364.4Z" fill="#2C2124"/>
<path opacity="0.2" d="M347.135 370.158C347.26 368.077 347.399 365.927 347.561 363.688C339.421 343.362 120.996 379.35 117.312 402.919C117.322 405.08 117.414 407.177 117.569 409.225C126.493 385.962 334 351.757 347.135 370.158Z" fill="#0F0B0C"/>
<path d="M130.928 274.668C130.981 273.94 130.878 273.21 130.625 272.525C130.372 271.841 129.975 271.218 129.462 270.7C128.948 270.181 128.329 269.779 127.647 269.52C126.965 269.261 126.235 269.15 125.507 269.197C125.236 269.207 124.966 269.241 124.7 269.298L92.7803 276.509C92.067 276.682 91.3979 277.002 90.816 277.45C90.2341 277.897 89.7523 278.461 89.4017 279.106C88.9336 279.123 88.4687 279.191 88.015 279.307C87.0217 279.533 86.0824 279.951 85.2509 280.539C84.4194 281.127 83.7118 281.874 83.1686 282.735C82.6254 283.597 82.2573 284.557 82.0852 285.561C81.9131 286.565 81.9404 287.592 82.1655 288.586C82.3907 289.579 82.8093 290.518 83.3974 291.35C83.9855 292.181 84.7317 292.889 85.5932 293.432C87.3333 294.529 89.4378 294.89 91.4439 294.435C92.5858 294.17 93.654 293.654 94.5703 292.923L105.387 323.38C105.927 324.335 106.762 325.089 107.766 325.529C108.771 325.97 109.891 326.074 110.959 325.826L131.709 321.136C132.769 320.888 133.724 320.31 134.435 319.485C135.146 318.661 135.578 317.632 135.668 316.547L130.928 274.668ZM90.9649 292.267C89.5322 292.59 88.0298 292.332 86.7871 291.549C85.5444 290.766 84.6629 289.523 84.3358 288.091C84.0087 286.659 84.2628 285.156 85.0423 283.911C85.8218 282.666 87.0631 281.782 88.494 281.451C88.5948 281.425 88.6958 281.451 88.7966 281.425C88.789 282.344 89.0238 283.249 89.4774 284.047L93.4357 290.956C92.7467 291.609 91.8924 292.063 90.9649 292.267Z" fill="#2C2124"/>
<path d="M125.507 269.197C125.81 273.231 118.901 277.871 109.648 279.711C101.151 281.451 93.5368 280.241 91.3936 277.064C91.8243 276.808 92.2922 276.621 92.7804 276.509L124.7 269.298C124.966 269.241 125.236 269.208 125.507 269.197Z" fill="#49373B"/>
<path d="M103.431 371.605L121.36 362.641L106.42 322.301L102.482 301.958C101.97 299.315 100.774 296.852 99.0128 294.816C97.2514 292.78 94.9865 291.242 92.4445 290.356C89.9025 289.47 87.1724 289.266 84.527 289.765C81.8817 290.265 79.4137 291.45 77.3697 293.202C74.3407 295.798 72.4389 299.469 72.0656 303.441C71.6923 307.413 72.8766 311.375 75.3687 314.49L89.9849 332.76L103.431 371.605Z" fill="#d19479"/>
<path d="M121.36 355.171L97.4551 367.124L115.596 423.967C116.899 428.049 119.234 431.725 122.376 434.639C125.518 437.552 129.359 439.605 133.527 440.597C138.666 441.821 144.062 441.376 148.932 439.327C153.801 437.278 157.892 433.731 160.61 429.2L208.716 346.745C212.125 341.063 213.177 334.274 211.648 327.826C210.119 321.379 206.129 315.786 200.531 312.24C197.521 310.334 194.142 309.082 190.616 308.567C187.089 308.053 183.494 308.286 180.064 309.253C176.634 310.22 173.446 311.898 170.707 314.178C167.969 316.458 165.741 319.29 164.169 322.488L134.807 385.053L121.36 355.171Z" fill="#49373B"/>
<path d="M113.966 303.801C113.922 303.801 113.878 303.793 113.836 303.779L108.617 301.982C108.554 301.96 108.497 301.923 108.452 301.874C108.407 301.825 108.374 301.766 108.358 301.701C108.342 301.637 108.342 301.569 108.358 301.504C108.374 301.44 108.407 301.38 108.452 301.331L112.333 297.105C112.369 297.066 112.412 297.034 112.46 297.012C112.508 296.989 112.559 296.976 112.612 296.974C112.665 296.972 112.718 296.98 112.767 296.998C112.817 297.016 112.863 297.044 112.901 297.079C112.94 297.115 112.972 297.158 112.994 297.206C113.016 297.254 113.029 297.306 113.031 297.359C113.033 297.411 113.025 297.464 113.007 297.514C112.988 297.563 112.96 297.609 112.925 297.647L109.458 301.422L114.097 303.02C114.187 303.051 114.263 303.112 114.311 303.194C114.36 303.276 114.378 303.372 114.362 303.465C114.347 303.559 114.298 303.644 114.226 303.706C114.153 303.767 114.061 303.801 113.966 303.801Z" fill="#FFB3C7"/>
<path d="M121.12 302.336C121.04 302.336 120.962 302.312 120.896 302.268C120.829 302.223 120.778 302.159 120.748 302.085C120.718 302.011 120.711 301.93 120.727 301.852C120.744 301.773 120.784 301.702 120.841 301.646L124.369 298.235L119.63 296.282C119.581 296.262 119.537 296.233 119.499 296.196C119.462 296.159 119.432 296.115 119.412 296.066C119.391 296.017 119.381 295.965 119.381 295.912C119.381 295.859 119.391 295.807 119.411 295.758C119.431 295.71 119.461 295.665 119.498 295.628C119.535 295.591 119.58 295.561 119.628 295.541C119.677 295.521 119.729 295.51 119.782 295.51C119.835 295.51 119.887 295.521 119.936 295.541L125.241 297.727C125.303 297.753 125.357 297.793 125.4 297.844C125.442 297.896 125.47 297.957 125.483 298.023C125.495 298.088 125.491 298.156 125.471 298.219C125.451 298.283 125.416 298.34 125.368 298.387L121.399 302.223C121.324 302.296 121.224 302.336 121.12 302.336Z" fill="#FFB3C7"/>
<path d="M115.062 306.256C115.022 306.256 114.982 306.25 114.944 306.238C114.893 306.223 114.846 306.198 114.806 306.164C114.765 306.13 114.731 306.089 114.707 306.042C114.682 305.996 114.667 305.945 114.662 305.892C114.657 305.84 114.662 305.787 114.678 305.737L118.383 293.695C118.414 293.594 118.485 293.509 118.579 293.459C118.673 293.41 118.783 293.4 118.884 293.431C118.986 293.462 119.071 293.533 119.121 293.626C119.17 293.72 119.181 293.83 119.15 293.932L115.445 305.973C115.42 306.055 115.369 306.127 115.3 306.178C115.231 306.229 115.148 306.256 115.062 306.256Z" fill="#FFB3C7"/>
</g>
<defs>
<clipPath id="clip0_558_1699">
<rect width="464" height="464" fill="white"/>
</clipPath>
</defs>
</svg>
