<svg width="74" height="40" viewBox="0 0 74 40" fill="none" xmlns="http://www.w3.org/2000/svg">
<g clip-path="url(#clip0_432_2350)">
<path d="M15.0704 38.4967C16.8068 38.4967 18.3348 38.0279 19.6545 37.0902C21.009 36.1526 21.6862 34.746 21.6862 32.8707C21.6862 30.9606 20.9569 29.502 19.4983 28.4949C18.0744 27.4877 16.0254 26.6195 13.3513 25.8902C10.7119 25.1262 8.7845 24.4663 7.56897 23.9107C6.3882 23.3551 5.25951 22.6258 4.18292 21.7228C2.02974 19.9169 0.953154 17.1212 0.953154 13.3358C0.953154 10.2449 2.04711 7.58819 4.23501 5.36558C6.45765 3.14298 9.47901 2.03163 13.2992 2.03163C15.1399 2.03163 17.0499 2.30949 19.0294 2.86512C21.0437 3.38605 22.2939 3.64651 22.7801 3.64651C23.2664 3.64651 23.7004 3.29925 24.0825 2.60465H24.6555L25.0201 13.1274H24.1866C22.5197 10.106 20.7659 7.69237 18.9252 5.88651C17.1194 4.04586 15.1399 3.12558 12.9866 3.12558C10.8682 3.12558 9.21855 3.62912 8.03781 4.63628C6.85703 5.60865 6.26664 6.92837 6.26664 8.59535C6.26664 10.2276 6.96122 11.4952 8.35036 12.3981C9.77427 13.2663 11.5106 13.9783 13.5597 14.534C15.6087 15.0896 16.9457 15.4716 17.5708 15.68C18.2306 15.8884 19.0294 16.1835 19.9671 16.5656C20.9395 16.9128 21.7209 17.2949 22.3113 17.7116C22.9364 18.0937 23.5789 18.5972 24.2387 19.2223C24.9333 19.8127 25.4716 20.4726 25.8536 21.2019C26.7913 22.8688 27.2601 24.8484 27.2601 27.1405C27.2601 30.8912 26.0794 33.9126 23.7178 36.2046C21.391 38.462 18.3175 39.5907 14.4973 39.5907C12.5178 39.5907 10.2431 39.3302 7.67315 38.8093C5.13796 38.2884 3.73145 38.0279 3.45362 38.0279C2.96741 38.0279 2.49858 38.5488 2.04711 39.5907H1.31781L0.796875 27.1926H1.68246C3.21052 30.214 5.15532 32.8533 7.51687 35.1107C9.91315 37.3681 12.431 38.4967 15.0704 38.4967ZM57.7695 0H70.5323V38.1321H73.4495V39.0698H57.9779V38.1321H60.843V0.937674H57.7695V0Z" fill="#49373B"/>
<mask id="mask0_432_2350" style="mask-type:luminance" maskUnits="userSpaceOnUse" x="30" y="13" width="27" height="27">
<path d="M56.7441 13.395H30.2324V39.9066H56.7441V13.395Z" fill="white"/>
</mask>
<g mask="url(#mask0_432_2350)">
<path d="M43.4751 13.6548C36.3013 13.6548 30.4922 19.4769 30.4922 26.6507C30.4922 33.8245 36.3013 39.6466 43.4751 39.6466C50.6619 39.6466 56.484 33.8245 56.484 26.6507C56.484 19.4769 50.6619 13.6548 43.4751 13.6548ZM52.4812 21.4524H48.6474C48.2316 19.8278 47.6338 18.2684 46.854 16.8258C49.2453 17.6446 51.2337 19.308 52.4812 21.4524ZM43.4881 16.3059C44.5667 17.8655 45.4114 19.5939 45.9703 21.4524H41.0059C41.5647 19.5939 42.4094 17.8655 43.4881 16.3059ZM33.4293 29.2499C33.2213 28.4181 33.0913 27.5474 33.0913 26.6507C33.0913 25.7539 33.2213 24.8833 33.4293 24.0515H37.8219C37.7179 24.9092 37.6399 25.767 37.6399 26.6507C37.6399 27.5344 37.7179 28.3921 37.8219 29.2499H33.4293ZM34.4949 31.849H38.3287C38.7446 33.4735 39.3424 35.033 40.1221 36.4756C37.7309 35.6568 35.7425 34.0063 34.4949 31.849ZM38.3287 21.4524H34.4949C35.7425 19.295 37.7309 17.6446 40.1221 16.8258C39.3424 18.2684 38.7446 19.8278 38.3287 21.4524ZM43.4881 36.9954C42.4094 35.4359 41.5647 33.7074 41.0059 31.849H45.9703C45.4114 33.7074 44.5667 35.4359 43.4881 36.9954ZM46.5291 29.2499H40.4471C40.33 28.3921 40.2391 27.5344 40.2391 26.6507C40.2391 25.767 40.33 24.8963 40.4471 24.0515H46.5291C46.646 24.8963 46.737 25.767 46.737 26.6507C46.737 27.5344 46.646 28.3921 46.5291 29.2499ZM46.854 36.4756C47.6338 35.033 48.2316 33.4735 48.6474 31.849H52.4812C51.2337 33.9934 49.2453 35.6568 46.854 36.4756ZM49.1543 29.2499C49.2582 28.3921 49.3363 27.5344 49.3363 26.6507C49.3363 25.767 49.2582 24.9092 49.1543 24.0515H53.5469C53.7548 24.8833 53.8848 25.7539 53.8848 26.6507C53.8848 27.5474 53.7548 28.4181 53.5469 29.2499H49.1543Z" fill="#49373B"/>
</g>
</g>
<defs>
<clipPath id="clip0_432_2350">
<rect width="73.4884" height="40" fill="white"/>
</clipPath>
</defs>
</svg>
