<svg width="72" height="37" viewBox="0 0 72 37" fill="none" xmlns="http://www.w3.org/2000/svg">
<path d="M15.36 35.48C13.952 35.48 12.544 35.368 11.136 35.144C9.728 34.952 8.4 34.648 7.152 34.232C5.904 33.784 4.784 33.24 3.792 32.6C3.216 32.216 2.816 31.752 2.592 31.208C2.368 30.664 2.288 30.136 2.352 29.624C2.448 29.08 2.656 28.616 2.976 28.232C3.328 27.816 3.76 27.56 4.272 27.464C4.784 27.368 5.344 27.512 5.952 27.896C7.36 28.728 8.848 29.336 10.416 29.72C11.984 30.104 13.632 30.296 15.36 30.296C17.888 30.296 19.728 29.88 20.88 29.048C22.032 28.184 22.608 27.08 22.608 25.736C22.608 24.616 22.192 23.736 21.36 23.096C20.56 22.456 19.168 21.928 17.184 21.512L11.904 20.408C8.864 19.768 6.592 18.696 5.088 17.192C3.616 15.656 2.88 13.64 2.88 11.144C2.88 9.576 3.2 8.152 3.84 6.872C4.48 5.592 5.376 4.488 6.528 3.56C7.712 2.632 9.104 1.928 10.704 1.448C12.336 0.935998 14.128 0.679998 16.08 0.679998C18 0.679998 19.824 0.919998 21.552 1.4C23.28 1.88 24.832 2.584 26.208 3.512C26.72 3.864 27.056 4.296 27.216 4.808C27.408 5.32 27.456 5.832 27.36 6.344C27.264 6.824 27.04 7.24 26.688 7.592C26.336 7.944 25.888 8.152 25.344 8.216C24.832 8.28 24.24 8.12 23.568 7.736C22.384 7.064 21.184 6.584 19.968 6.296C18.752 6.008 17.44 5.864 16.032 5.864C14.56 5.864 13.296 6.072 12.24 6.488C11.184 6.904 10.368 7.496 9.792 8.264C9.248 9 8.976 9.88 8.976 10.904C8.976 12.056 9.36 12.984 10.128 13.688C10.896 14.36 12.208 14.888 14.064 15.272L19.296 16.376C22.464 17.048 24.816 18.104 26.352 19.544C27.92 20.984 28.704 22.904 28.704 25.304C28.704 26.84 28.384 28.232 27.744 29.48C27.136 30.728 26.24 31.8 25.056 32.696C23.904 33.592 22.512 34.28 20.88 34.76C19.248 35.24 17.408 35.48 15.36 35.48ZM67.4085 35.48C64.7525 35.48 62.7525 34.728 61.4085 33.224C60.0645 31.688 59.3925 29.448 59.3925 26.504V3.8C59.3925 2.808 59.6485 2.056 60.1605 1.544C60.6725 1.032 61.4085 0.775997 62.3685 0.775997C63.3285 0.775997 64.0645 1.032 64.5765 1.544C65.1205 2.056 65.3925 2.808 65.3925 3.8V26.216C65.3925 27.688 65.6965 28.776 66.3045 29.48C66.9445 30.184 67.8405 30.536 68.9925 30.536C69.2485 30.536 69.4885 30.536 69.7125 30.536C69.9365 30.504 70.1605 30.472 70.3845 30.44C70.8325 30.376 71.1365 30.504 71.2965 30.824C71.4565 31.112 71.5365 31.72 71.5365 32.648C71.5365 33.448 71.3765 34.072 71.0565 34.52C70.7365 34.968 70.2085 35.24 69.4725 35.336C69.1525 35.368 68.8165 35.4 68.4645 35.432C68.1125 35.464 67.7605 35.48 67.4085 35.48Z" fill="#49373B"/>
<path d="M43.9885 11.5C37.6405 11.5 32.5 16.652 32.5 23C32.5 29.348 37.6405 34.5 43.9885 34.5C50.348 34.5 55.5 29.348 55.5 23C55.5 16.652 50.348 11.5 43.9885 11.5ZM51.958 18.4H48.5655C48.1975 16.9625 47.6685 15.5825 46.9785 14.306C49.0945 15.0305 50.854 16.5025 51.958 18.4ZM44 13.846C44.9545 15.226 45.702 16.7555 46.1965 18.4H41.8035C42.298 16.7555 43.0455 15.226 44 13.846ZM35.099 25.3C34.915 24.564 34.8 23.7935 34.8 23C34.8 22.2065 34.915 21.436 35.099 20.7H38.986C38.894 21.459 38.825 22.218 38.825 23C38.825 23.782 38.894 24.541 38.986 25.3H35.099ZM36.042 27.6H39.4345C39.8025 29.0375 40.3315 30.4175 41.0215 31.694C38.9055 30.9695 37.146 29.509 36.042 27.6ZM39.4345 18.4H36.042C37.146 16.491 38.9055 15.0305 41.0215 14.306C40.3315 15.5825 39.8025 16.9625 39.4345 18.4ZM44 32.154C43.0455 30.774 42.298 29.2445 41.8035 27.6H46.1965C45.702 29.2445 44.9545 30.774 44 32.154ZM46.691 25.3H41.309C41.2055 24.541 41.125 23.782 41.125 23C41.125 22.218 41.2055 21.4475 41.309 20.7H46.691C46.7945 21.4475 46.875 22.218 46.875 23C46.875 23.782 46.7945 24.541 46.691 25.3ZM46.9785 31.694C47.6685 30.4175 48.1975 29.0375 48.5655 27.6H51.958C50.854 29.4975 49.0945 30.9695 46.9785 31.694ZM49.014 25.3C49.106 24.541 49.175 23.782 49.175 23C49.175 22.218 49.106 21.459 49.014 20.7H52.901C53.085 21.436 53.2 22.2065 53.2 23C53.2 23.7935 53.085 24.564 52.901 25.3H49.014Z" fill="#49373B"/>
<rect x="32.5" y="11.5" width="23" height="23" rx="11.5" stroke="#49373B" stroke-width="2"/>
</svg>
