<svg width="27" height="27" viewBox="0 0 27 27" fill="none" xmlns="http://www.w3.org/2000/svg">
<mask id="mask0_432_2345" style="mask-type:luminance" maskUnits="userSpaceOnUse" x="0" y="0" width="27" height="27">
<path d="M26.7441 0.39502H0.232422V26.9066H26.7441V0.39502Z" fill="white"/>
</mask>
<g mask="url(#mask0_432_2345)">
<path d="M13.4751 0.654785C6.3013 0.654785 0.492188 6.47692 0.492188 13.6507C0.492188 20.8245 6.3013 26.6466 13.4751 26.6466C20.6619 26.6466 26.484 20.8245 26.484 13.6507C26.484 6.47692 20.6619 0.654785 13.4751 0.654785ZM22.4812 8.45237H18.6474C18.2316 6.82781 17.6338 5.26837 16.854 3.82576C19.2453 4.64455 21.2337 6.30799 22.4812 8.45237ZM13.4881 3.30595C14.5667 4.86548 15.4114 6.59395 15.9703 8.45237H11.0059C11.5647 6.59395 12.4094 4.86548 13.4881 3.30595ZM3.4293 16.2499C3.2213 15.4181 3.09135 14.5474 3.09135 13.6507C3.09135 12.7539 3.2213 11.8833 3.4293 11.0515H7.82186C7.71786 11.9092 7.63991 12.767 7.63991 13.6507C7.63991 14.5344 7.71786 15.3921 7.82186 16.2499H3.4293ZM4.49488 18.849H8.32875C8.74456 20.4735 9.34242 22.033 10.1221 23.4756C7.73088 22.6568 5.74251 21.0063 4.49488 18.849ZM8.32875 8.45237H4.49488C5.74251 6.29497 7.73088 4.64455 10.1221 3.82576C9.34242 5.26837 8.74456 6.82781 8.32875 8.45237ZM13.4881 23.9954C12.4094 22.4359 11.5647 20.7074 11.0059 18.849H15.9703C15.4114 20.7074 14.5667 22.4359 13.4881 23.9954ZM16.5291 16.2499H10.4471C10.33 15.3921 10.2391 14.5344 10.2391 13.6507C10.2391 12.767 10.33 11.8963 10.4471 11.0515H16.5291C16.646 11.8963 16.737 12.767 16.737 13.6507C16.737 14.5344 16.646 15.3921 16.5291 16.2499ZM16.854 23.4756C17.6338 22.033 18.2316 20.4735 18.6474 18.849H22.4812C21.2337 20.9934 19.2453 22.6568 16.854 23.4756ZM19.1543 16.2499C19.2582 15.3921 19.3363 14.5344 19.3363 13.6507C19.3363 12.767 19.2582 11.9092 19.1543 11.0515H23.5469C23.7548 11.8833 23.8848 12.7539 23.8848 13.6507C23.8848 14.5474 23.7548 15.4181 23.5469 16.2499H19.1543Z" fill="#49373B"/>
</g>
</svg>
