<svg width="33" height="33" viewBox="0 0 33 33" fill="none" xmlns="http://www.w3.org/2000/svg">
<g clip-path="url(#clip0_560_2749)">
<path d="M17.922 16.8784C17.628 17.1438 17.246 17.2906 16.85 17.2906C16.4539 17.2906 16.072 17.1438 15.778 16.8784L2.20996 4.54242C2.74237 4.17771 3.37261 3.98251 4.01796 3.98242H29.618C30.2633 3.98251 30.8935 4.17771 31.426 4.54242L17.922 16.8784Z" fill="#49373B"/>
<path d="M32.8184 7.59863V24.7826C32.8184 26.0557 32.3126 27.2766 31.4125 28.1767C30.5123 29.0769 29.2914 29.5826 28.0184 29.5826H5.61836C4.34532 29.5826 3.12442 29.0769 2.22425 28.1767C1.32407 27.2766 0.818359 26.0557 0.818359 24.7826V7.59863L14.7064 20.2706C15.2921 20.7793 16.0426 21.0579 16.8184 21.0546C17.6038 21.053 18.3612 20.7626 18.9464 20.2386L32.8184 7.59863Z" fill="#49373B"/>
</g>
<defs>
<clipPath id="clip0_560_2749">
<rect width="32" height="32" fill="white" transform="translate(0.818359 0.982422)"/>
</clipPath>
</defs>
</svg>
