<svg width="33" height="33" viewBox="0 0 33 33" fill="none" xmlns="http://www.w3.org/2000/svg">
<path fill-rule="evenodd" clip-rule="evenodd" d="M20.601 32.9798C31.7237 32.658 32.8184 30.3135 32.8184 17.0038C32.8184 2.31754 31.485 0.982422 16.8183 0.982422C2.15169 0.982422 0.818359 2.31754 0.818359 17.0038C0.818359 30.3482 1.91969 32.67 13.1223 32.9824C13.2197 32.8609 13.2557 32.7087 13.2557 32.5539C13.2557 32.2201 13.2423 28.7942 13.2357 27.6153C9.18637 28.4684 8.3317 25.7207 8.3317 25.7207C7.66903 24.0892 6.71436 23.654 6.71436 23.654C5.39303 22.7782 6.81436 22.7955 6.81436 22.7955C8.2757 22.8956 9.04503 24.2521 9.04503 24.2521C10.3437 26.411 12.453 25.7875 13.2823 25.4257C13.4143 24.5138 13.7903 23.8903 14.2063 23.5378C10.973 23.1814 7.57436 21.9691 7.57436 16.5552C7.57436 15.0131 8.14237 13.7528 9.07303 12.7648C8.92237 12.407 8.4237 10.9704 9.2157 9.02647C9.2157 9.02647 10.4384 8.64597 13.2197 10.4737C14.381 10.16 15.6263 10.0038 16.865 9.99844C18.101 10.0038 19.3463 10.16 20.5103 10.4737C23.2903 8.64597 24.5103 9.02647 24.5103 9.02647C25.305 10.9704 24.805 12.407 24.6543 12.7648C25.5877 13.7528 26.1517 15.0131 26.1517 16.5552C26.1517 21.9824 22.7477 23.1774 19.5037 23.5258C20.0263 23.9624 20.4917 24.8249 20.4917 26.1426C20.4917 27.4057 20.4837 29.6393 20.4783 31.1199C20.4757 31.8529 20.4743 32.4003 20.4743 32.5539C20.4743 32.6994 20.513 32.8529 20.601 32.9798Z" fill="#49373B"/>
</svg>
