<svg width="32" height="33" viewBox="0 0 32 33" fill="none" xmlns="http://www.w3.org/2000/svg">
<g clip-path="url(#clip0_560_2745)">
<path d="M29.6189 1.07324H2.43897C1.19355 1.07324 0.181641 2.10307 0.181641 3.36728V30.5974C0.181641 31.8616 1.19355 32.8914 2.43897 32.8914H29.6189C30.8643 32.8914 31.8833 31.8616 31.8833 30.5974V3.36728C31.8833 2.10307 30.8643 1.07324 29.6189 1.07324ZM9.76289 28.346H5.06426V13.1613H9.76997V28.346H9.76289ZM7.41357 11.0874C5.90633 11.0874 4.68922 9.85875 4.68922 8.35307C4.68922 6.84739 5.90633 5.6187 7.41357 5.6187C8.91374 5.6187 10.1379 6.84739 10.1379 8.35307C10.1379 9.86586 8.92082 11.0874 7.41357 11.0874ZM27.3757 28.346H22.6771V20.9596C22.6771 19.1982 22.6417 16.9326 20.2358 16.9326C17.7874 16.9326 17.4123 18.8502 17.4123 20.8318V28.346H12.7137V13.1613H17.2213V15.2352H17.285C17.9147 14.042 19.4503 12.7849 21.7359 12.7849C26.4912 12.7849 27.3757 15.9312 27.3757 20.0221V28.346Z" fill="#49373B"/>
</g>
<defs>
<clipPath id="clip0_560_2745">
<rect width="31.6364" height="32" fill="white" transform="translate(0.181641 0.982422)"/>
</clipPath>
</defs>
</svg>
